<svg width="828" height="115" viewBox="0 0 828 115" fill="none" xmlns="http://www.w3.org/2000/svg">
<g clip-path="url(#clip0_5_81)">
<rect x="54" y="15" width="90" height="25" fill="#861F6B"/>
<rect x="54" y="15" width="90" height="25" fill="#AF1B43"/>
<rect x="54" y="15" width="90" height="25" fill="#D8382E"/>
<rect x="54" y="15" width="90" height="25" fill="#FD6A0D"/>
<rect x="54" y="15" width="90" height="25" fill="#FEA83E"/>
<rect x="54" y="15" width="90" height="25" fill="#F2DF91"/>
<rect x="54" y="15" width="90" height="25" fill="#F9F0CF"/>
<rect x="234" y="15" width="90" height="25" fill="#FEA83E"/>
<rect x="414" y="15" width="90" height="25" fill="#D8382E"/>
<rect x="594" y="15" width="90" height="25" fill="#861F6B"/>
<rect x="144" y="15" width="90" height="25" fill="#F2DF91"/>
<rect x="324" y="15" width="90" height="25" fill="#FD6A0D"/>
<rect x="504" y="15" width="90" height="25" fill="#AF1B43"/>
<rect x="684" y="15" width="90" height="25" fill="#532046"/>
<path d="M144 50.5V15" stroke="black" stroke-width="2"/>
<path d="M138.104 60.984C138.68 60.984 139.24 60.936 139.784 60.84C140.328 60.744 140.816 60.584 141.248 60.36C141.696 60.136 142.072 59.848 142.376 59.496C142.696 59.144 142.904 58.712 143 58.2H145.232V75H142.232V63.144H138.104V60.984Z" fill="black"/>
<path d="M504 50.5V15" stroke="black" stroke-width="2"/>
<path d="M484.768 60.984C485.344 60.984 485.904 60.936 486.448 60.84C486.992 60.744 487.48 60.584 487.912 60.36C488.36 60.136 488.736 59.848 489.04 59.496C489.36 59.144 489.568 58.712 489.664 58.2H491.896V75H488.896V63.144H484.768V60.984ZM503.504 57.864C504.704 57.864 505.68 58.144 506.432 58.704C507.2 59.248 507.792 59.952 508.208 60.816C508.64 61.664 508.928 62.6 509.072 63.624C509.232 64.648 509.312 65.64 509.312 66.6C509.312 67.56 509.232 68.552 509.072 69.576C508.928 70.6 508.64 71.544 508.208 72.408C507.792 73.256 507.2 73.96 506.432 74.52C505.68 75.064 504.704 75.336 503.504 75.336C502.304 75.336 501.32 75.064 500.552 74.52C499.8 73.96 499.208 73.256 498.776 72.408C498.36 71.544 498.072 70.6 497.912 69.576C497.768 68.552 497.696 67.56 497.696 66.6C497.696 65.64 497.768 64.648 497.912 63.624C498.072 62.6 498.36 61.664 498.776 60.816C499.208 59.952 499.8 59.248 500.552 58.704C501.32 58.144 502.304 57.864 503.504 57.864ZM503.504 73.056C504.096 73.056 504.592 72.888 504.992 72.552C505.392 72.2 505.704 71.736 505.928 71.16C506.168 70.568 506.336 69.88 506.432 69.096C506.528 68.312 506.576 67.48 506.576 66.6C506.576 65.72 506.528 64.896 506.432 64.128C506.336 63.344 506.168 62.656 505.928 62.064C505.704 61.472 505.392 61.008 504.992 60.672C504.592 60.32 504.096 60.144 503.504 60.144C502.896 60.144 502.392 60.32 501.992 60.672C501.608 61.008 501.296 61.472 501.056 62.064C500.832 62.656 500.672 63.344 500.576 64.128C500.48 64.896 500.432 65.72 500.432 66.6C500.432 67.48 500.48 68.312 500.576 69.096C500.672 69.88 500.832 70.568 501.056 71.16C501.296 71.736 501.608 72.2 501.992 72.552C502.392 72.888 502.896 73.056 503.504 73.056ZM516.84 57.864C518.04 57.864 519.016 58.144 519.768 58.704C520.536 59.248 521.128 59.952 521.544 60.816C521.976 61.664 522.264 62.6 522.408 63.624C522.568 64.648 522.648 65.64 522.648 66.6C522.648 67.56 522.568 68.552 522.408 69.576C522.264 70.6 521.976 71.544 521.544 72.408C521.128 73.256 520.536 73.96 519.768 74.52C519.016 75.064 518.04 75.336 516.84 75.336C515.64 75.336 514.656 75.064 513.888 74.52C513.136 73.96 512.544 73.256 512.112 72.408C511.696 71.544 511.408 70.6 511.248 69.576C511.104 68.552 511.032 67.56 511.032 66.6C511.032 65.64 511.104 64.648 511.248 63.624C511.408 62.6 511.696 61.664 512.112 60.816C512.544 59.952 513.136 59.248 513.888 58.704C514.656 58.144 515.64 57.864 516.84 57.864ZM516.84 73.056C517.432 73.056 517.928 72.888 518.328 72.552C518.728 72.2 519.04 71.736 519.264 71.16C519.504 70.568 519.672 69.88 519.768 69.096C519.864 68.312 519.912 67.48 519.912 66.6C519.912 65.72 519.864 64.896 519.768 64.128C519.672 63.344 519.504 62.656 519.264 62.064C519.04 61.472 518.728 61.008 518.328 60.672C517.928 60.32 517.432 60.144 516.84 60.144C516.232 60.144 515.728 60.32 515.328 60.672C514.944 61.008 514.632 61.472 514.392 62.064C514.168 62.656 514.008 63.344 513.912 64.128C513.816 64.896 513.768 65.72 513.768 66.6C513.768 67.48 513.816 68.312 513.912 69.096C514.008 69.88 514.168 70.568 514.392 71.16C514.632 71.736 514.944 72.2 515.328 72.552C515.728 72.888 516.232 73.056 516.84 73.056Z" fill="black"/>
<path d="M234 50.5V15" stroke="black" stroke-width="2"/>
<path d="M232.304 65.16C232.752 65.176 233.2 65.144 233.648 65.064C234.096 64.984 234.496 64.848 234.848 64.656C235.2 64.448 235.48 64.168 235.688 63.816C235.912 63.464 236.024 63.032 236.024 62.52C236.024 61.8 235.776 61.224 235.28 60.792C234.8 60.36 234.176 60.144 233.408 60.144C232.928 60.144 232.512 60.24 232.16 60.432C231.808 60.624 231.512 60.888 231.272 61.224C231.048 61.544 230.88 61.912 230.768 62.328C230.656 62.728 230.608 63.144 230.624 63.576H227.888C227.92 62.76 228.072 62.008 228.344 61.32C228.616 60.616 228.984 60.008 229.448 59.496C229.928 58.984 230.504 58.584 231.176 58.296C231.848 58.008 232.608 57.864 233.456 57.864C234.112 57.864 234.752 57.96 235.376 58.152C236.016 58.344 236.584 58.624 237.08 58.992C237.592 59.36 238 59.832 238.304 60.408C238.608 60.968 238.76 61.616 238.76 62.352C238.76 63.2 238.568 63.944 238.184 64.584C237.8 65.208 237.2 65.664 236.384 65.952V66C237.344 66.192 238.088 66.672 238.616 67.44C239.16 68.192 239.432 69.112 239.432 70.2C239.432 71 239.272 71.72 238.952 72.36C238.632 72.984 238.2 73.52 237.656 73.968C237.112 74.4 236.48 74.736 235.76 74.976C235.04 75.216 234.28 75.336 233.48 75.336C232.504 75.336 231.648 75.2 230.912 74.928C230.192 74.64 229.584 74.24 229.088 73.728C228.608 73.216 228.24 72.6 227.984 71.88C227.728 71.16 227.592 70.36 227.576 69.48H230.312C230.28 70.504 230.528 71.36 231.056 72.048C231.6 72.72 232.408 73.056 233.48 73.056C234.392 73.056 235.152 72.8 235.76 72.288C236.384 71.76 236.696 71.016 236.696 70.056C236.696 69.4 236.568 68.88 236.312 68.496C236.056 68.112 235.72 67.824 235.304 67.632C234.888 67.424 234.416 67.296 233.888 67.248C233.376 67.2 232.848 67.184 232.304 67.2V65.16Z" fill="black"/>
<path d="M594 50.5V15" stroke="black" stroke-width="2"/>
<path d="M574.768 60.984C575.344 60.984 575.904 60.936 576.448 60.84C576.992 60.744 577.48 60.584 577.912 60.36C578.36 60.136 578.736 59.848 579.04 59.496C579.36 59.144 579.568 58.712 579.664 58.2H581.896V75H578.896V63.144H574.768V60.984ZM589.784 58.2H598.472V60.648H591.824L590.96 64.92L591.008 64.968C591.376 64.552 591.84 64.24 592.4 64.032C592.976 63.808 593.544 63.696 594.104 63.696C594.936 63.696 595.68 63.84 596.336 64.128C596.992 64.4 597.544 64.792 597.992 65.304C598.44 65.8 598.776 66.392 599 67.08C599.24 67.768 599.36 68.512 599.36 69.312C599.36 69.984 599.248 70.68 599.024 71.4C598.816 72.104 598.472 72.752 597.992 73.344C597.528 73.92 596.928 74.4 596.192 74.784C595.456 75.152 594.576 75.336 593.552 75.336C592.736 75.336 591.976 75.224 591.272 75C590.584 74.792 589.976 74.472 589.448 74.04C588.92 73.608 588.496 73.08 588.176 72.456C587.872 71.816 587.704 71.072 587.672 70.224H590.408C590.488 71.136 590.8 71.84 591.344 72.336C591.888 72.816 592.608 73.056 593.504 73.056C594.08 73.056 594.568 72.96 594.968 72.768C595.368 72.576 595.688 72.312 595.928 71.976C596.184 71.64 596.36 71.248 596.456 70.8C596.568 70.352 596.624 69.872 596.624 69.36C596.624 68.896 596.56 68.456 596.432 68.04C596.304 67.608 596.112 67.232 595.856 66.912C595.6 66.592 595.264 66.336 594.848 66.144C594.448 65.952 593.976 65.856 593.432 65.856C592.856 65.856 592.312 65.968 591.8 66.192C591.304 66.4 590.944 66.8 590.72 67.392H587.984L589.784 58.2ZM606.84 57.864C608.04 57.864 609.016 58.144 609.768 58.704C610.536 59.248 611.128 59.952 611.544 60.816C611.976 61.664 612.264 62.6 612.408 63.624C612.568 64.648 612.648 65.64 612.648 66.6C612.648 67.56 612.568 68.552 612.408 69.576C612.264 70.6 611.976 71.544 611.544 72.408C611.128 73.256 610.536 73.96 609.768 74.52C609.016 75.064 608.04 75.336 606.84 75.336C605.64 75.336 604.656 75.064 603.888 74.52C603.136 73.96 602.544 73.256 602.112 72.408C601.696 71.544 601.408 70.6 601.248 69.576C601.104 68.552 601.032 67.56 601.032 66.6C601.032 65.64 601.104 64.648 601.248 63.624C601.408 62.6 601.696 61.664 602.112 60.816C602.544 59.952 603.136 59.248 603.888 58.704C604.656 58.144 605.64 57.864 606.84 57.864ZM606.84 73.056C607.432 73.056 607.928 72.888 608.328 72.552C608.728 72.2 609.04 71.736 609.264 71.16C609.504 70.568 609.672 69.88 609.768 69.096C609.864 68.312 609.912 67.48 609.912 66.6C609.912 65.72 609.864 64.896 609.768 64.128C609.672 63.344 609.504 62.656 609.264 62.064C609.04 61.472 608.728 61.008 608.328 60.672C607.928 60.32 607.432 60.144 606.84 60.144C606.232 60.144 605.728 60.32 605.328 60.672C604.944 61.008 604.632 61.472 604.392 62.064C604.168 62.656 604.008 63.344 603.912 64.128C603.816 64.896 603.768 65.72 603.768 66.6C603.768 67.48 603.816 68.312 603.912 69.096C604.008 69.88 604.168 70.568 604.392 71.16C604.632 71.736 604.944 72.2 605.328 72.552C605.728 72.888 606.232 73.056 606.84 73.056Z" fill="black"/>
<path d="M324 50.5V15" stroke="black" stroke-width="2"/>
<path d="M322.572 75H311.1C311.116 73.608 311.452 72.392 312.108 71.352C312.764 70.312 313.66 69.408 314.796 68.64C315.34 68.24 315.908 67.856 316.5 67.488C317.092 67.104 317.636 66.696 318.132 66.264C318.628 65.832 319.036 65.368 319.356 64.872C319.676 64.36 319.844 63.776 319.86 63.12C319.86 62.816 319.82 62.496 319.74 62.16C319.676 61.808 319.54 61.488 319.332 61.2C319.124 60.896 318.836 60.648 318.468 60.456C318.1 60.248 317.62 60.144 317.028 60.144C316.484 60.144 316.028 60.256 315.66 60.48C315.308 60.688 315.02 60.984 314.796 61.368C314.588 61.736 314.428 62.176 314.316 62.688C314.22 63.2 314.164 63.752 314.148 64.344H311.412C311.412 63.416 311.532 62.56 311.772 61.776C312.028 60.976 312.404 60.288 312.9 59.712C313.396 59.136 313.996 58.688 314.7 58.368C315.42 58.032 316.252 57.864 317.196 57.864C318.22 57.864 319.076 58.032 319.764 58.368C320.452 58.704 321.004 59.128 321.42 59.64C321.852 60.152 322.156 60.712 322.332 61.32C322.508 61.912 322.596 62.48 322.596 63.024C322.596 63.696 322.492 64.304 322.284 64.848C322.076 65.392 321.796 65.896 321.444 66.36C321.092 66.808 320.692 67.224 320.244 67.608C319.796 67.992 319.332 68.352 318.852 68.688C318.372 69.024 317.892 69.344 317.412 69.648C316.932 69.952 316.484 70.256 316.068 70.56C315.668 70.864 315.316 71.184 315.012 71.52C314.708 71.84 314.5 72.184 314.388 72.552H322.572V75ZM330.172 57.864C331.372 57.864 332.348 58.144 333.1 58.704C333.868 59.248 334.46 59.952 334.876 60.816C335.308 61.664 335.596 62.6 335.74 63.624C335.9 64.648 335.98 65.64 335.98 66.6C335.98 67.56 335.9 68.552 335.74 69.576C335.596 70.6 335.308 71.544 334.876 72.408C334.46 73.256 333.868 73.96 333.1 74.52C332.348 75.064 331.372 75.336 330.172 75.336C328.972 75.336 327.988 75.064 327.22 74.52C326.468 73.96 325.876 73.256 325.444 72.408C325.028 71.544 324.74 70.6 324.58 69.576C324.436 68.552 324.364 67.56 324.364 66.6C324.364 65.64 324.436 64.648 324.58 63.624C324.74 62.6 325.028 61.664 325.444 60.816C325.876 59.952 326.468 59.248 327.22 58.704C327.988 58.144 328.972 57.864 330.172 57.864ZM330.172 73.056C330.764 73.056 331.26 72.888 331.66 72.552C332.06 72.2 332.372 71.736 332.596 71.16C332.836 70.568 333.004 69.88 333.1 69.096C333.196 68.312 333.244 67.48 333.244 66.6C333.244 65.72 333.196 64.896 333.1 64.128C333.004 63.344 332.836 62.656 332.596 62.064C332.372 61.472 332.06 61.008 331.66 60.672C331.26 60.32 330.764 60.144 330.172 60.144C329.564 60.144 329.06 60.32 328.66 60.672C328.276 61.008 327.964 61.472 327.724 62.064C327.5 62.656 327.34 63.344 327.244 64.128C327.148 64.896 327.1 65.72 327.1 66.6C327.1 67.48 327.148 68.312 327.244 69.096C327.34 69.88 327.5 70.568 327.724 71.16C327.964 71.736 328.276 72.2 328.66 72.552C329.06 72.888 329.564 73.056 330.172 73.056Z" fill="black"/>
<path d="M684 50.5V15" stroke="black" stroke-width="2"/>
<path d="M675.904 75H664.432C664.448 73.608 664.784 72.392 665.44 71.352C666.096 70.312 666.992 69.408 668.128 68.64C668.672 68.24 669.24 67.856 669.832 67.488C670.424 67.104 670.968 66.696 671.464 66.264C671.96 65.832 672.368 65.368 672.688 64.872C673.008 64.36 673.176 63.776 673.192 63.12C673.192 62.816 673.152 62.496 673.072 62.16C673.008 61.808 672.872 61.488 672.664 61.2C672.456 60.896 672.168 60.648 671.8 60.456C671.432 60.248 670.952 60.144 670.36 60.144C669.816 60.144 669.36 60.256 668.992 60.48C668.64 60.688 668.352 60.984 668.128 61.368C667.92 61.736 667.76 62.176 667.648 62.688C667.552 63.2 667.496 63.752 667.48 64.344H664.744C664.744 63.416 664.864 62.56 665.104 61.776C665.36 60.976 665.736 60.288 666.232 59.712C666.728 59.136 667.328 58.688 668.032 58.368C668.752 58.032 669.584 57.864 670.528 57.864C671.552 57.864 672.408 58.032 673.096 58.368C673.784 58.704 674.336 59.128 674.752 59.64C675.184 60.152 675.488 60.712 675.664 61.32C675.84 61.912 675.928 62.48 675.928 63.024C675.928 63.696 675.824 64.304 675.616 64.848C675.408 65.392 675.128 65.896 674.776 66.36C674.424 66.808 674.024 67.224 673.576 67.608C673.128 67.992 672.664 68.352 672.184 68.688C671.704 69.024 671.224 69.344 670.744 69.648C670.264 69.952 669.816 70.256 669.4 70.56C669 70.864 668.648 71.184 668.344 71.52C668.04 71.84 667.832 72.184 667.72 72.552H675.904V75ZM683.504 57.864C684.704 57.864 685.68 58.144 686.432 58.704C687.2 59.248 687.792 59.952 688.208 60.816C688.64 61.664 688.928 62.6 689.072 63.624C689.232 64.648 689.312 65.64 689.312 66.6C689.312 67.56 689.232 68.552 689.072 69.576C688.928 70.6 688.64 71.544 688.208 72.408C687.792 73.256 687.2 73.96 686.432 74.52C685.68 75.064 684.704 75.336 683.504 75.336C682.304 75.336 681.32 75.064 680.552 74.52C679.8 73.96 679.208 73.256 678.776 72.408C678.36 71.544 678.072 70.6 677.912 69.576C677.768 68.552 677.696 67.56 677.696 66.6C677.696 65.64 677.768 64.648 677.912 63.624C678.072 62.6 678.36 61.664 678.776 60.816C679.208 59.952 679.8 59.248 680.552 58.704C681.32 58.144 682.304 57.864 683.504 57.864ZM683.504 73.056C684.096 73.056 684.592 72.888 684.992 72.552C685.392 72.2 685.704 71.736 685.928 71.16C686.168 70.568 686.336 69.88 686.432 69.096C686.528 68.312 686.576 67.48 686.576 66.6C686.576 65.72 686.528 64.896 686.432 64.128C686.336 63.344 686.168 62.656 685.928 62.064C685.704 61.472 685.392 61.008 684.992 60.672C684.592 60.32 684.096 60.144 683.504 60.144C682.896 60.144 682.392 60.32 681.992 60.672C681.608 61.008 681.296 61.472 681.056 62.064C680.832 62.656 680.672 63.344 680.576 64.128C680.48 64.896 680.432 65.72 680.432 66.6C680.432 67.48 680.48 68.312 680.576 69.096C680.672 69.88 680.832 70.568 681.056 71.16C681.296 71.736 681.608 72.2 681.992 72.552C682.392 72.888 682.896 73.056 683.504 73.056ZM696.84 57.864C698.04 57.864 699.016 58.144 699.768 58.704C700.536 59.248 701.128 59.952 701.544 60.816C701.976 61.664 702.264 62.6 702.408 63.624C702.568 64.648 702.648 65.64 702.648 66.6C702.648 67.56 702.568 68.552 702.408 69.576C702.264 70.6 701.976 71.544 701.544 72.408C701.128 73.256 700.536 73.96 699.768 74.52C699.016 75.064 698.04 75.336 696.84 75.336C695.64 75.336 694.656 75.064 693.888 74.52C693.136 73.96 692.544 73.256 692.112 72.408C691.696 71.544 691.408 70.6 691.248 69.576C691.104 68.552 691.032 67.56 691.032 66.6C691.032 65.64 691.104 64.648 691.248 63.624C691.408 62.6 691.696 61.664 692.112 60.816C692.544 59.952 693.136 59.248 693.888 58.704C694.656 58.144 695.64 57.864 696.84 57.864ZM696.84 73.056C697.432 73.056 697.928 72.888 698.328 72.552C698.728 72.2 699.04 71.736 699.264 71.16C699.504 70.568 699.672 69.88 699.768 69.096C699.864 68.312 699.912 67.48 699.912 66.6C699.912 65.72 699.864 64.896 699.768 64.128C699.672 63.344 699.504 62.656 699.264 62.064C699.04 61.472 698.728 61.008 698.328 60.672C697.928 60.32 697.432 60.144 696.84 60.144C696.232 60.144 695.728 60.32 695.328 60.672C694.944 61.008 694.632 61.472 694.392 62.064C694.168 62.656 694.008 63.344 693.912 64.128C693.816 64.896 693.768 65.72 693.768 66.6C693.768 67.48 693.816 68.312 693.912 69.096C694.008 69.88 694.168 70.568 694.392 71.16C694.632 71.736 694.944 72.2 695.328 72.552C695.728 72.888 696.232 73.056 696.84 73.056Z" fill="black"/>
<path d="M414 50.5V15" stroke="black" stroke-width="2"/>
<path d="M403.116 58.2H411.804V60.648H405.156L404.292 64.92L404.34 64.968C404.708 64.552 405.172 64.24 405.732 64.032C406.308 63.808 406.876 63.696 407.436 63.696C408.268 63.696 409.012 63.84 409.668 64.128C410.324 64.4 410.876 64.792 411.324 65.304C411.772 65.8 412.108 66.392 412.332 67.08C412.572 67.768 412.692 68.512 412.692 69.312C412.692 69.984 412.58 70.68 412.356 71.4C412.148 72.104 411.804 72.752 411.324 73.344C410.86 73.92 410.26 74.4 409.524 74.784C408.788 75.152 407.908 75.336 406.884 75.336C406.068 75.336 405.308 75.224 404.604 75C403.916 74.792 403.308 74.472 402.78 74.04C402.252 73.608 401.828 73.08 401.508 72.456C401.204 71.816 401.036 71.072 401.004 70.224H403.74C403.82 71.136 404.132 71.84 404.676 72.336C405.22 72.816 405.94 73.056 406.836 73.056C407.412 73.056 407.9 72.96 408.3 72.768C408.7 72.576 409.02 72.312 409.26 71.976C409.516 71.64 409.692 71.248 409.788 70.8C409.9 70.352 409.956 69.872 409.956 69.36C409.956 68.896 409.892 68.456 409.764 68.04C409.636 67.608 409.444 67.232 409.188 66.912C408.932 66.592 408.596 66.336 408.18 66.144C407.78 65.952 407.308 65.856 406.764 65.856C406.188 65.856 405.644 65.968 405.132 66.192C404.636 66.4 404.276 66.8 404.052 67.392H401.316L403.116 58.2ZM420.172 57.864C421.372 57.864 422.348 58.144 423.1 58.704C423.868 59.248 424.46 59.952 424.876 60.816C425.308 61.664 425.596 62.6 425.74 63.624C425.9 64.648 425.98 65.64 425.98 66.6C425.98 67.56 425.9 68.552 425.74 69.576C425.596 70.6 425.308 71.544 424.876 72.408C424.46 73.256 423.868 73.96 423.1 74.52C422.348 75.064 421.372 75.336 420.172 75.336C418.972 75.336 417.988 75.064 417.22 74.52C416.468 73.96 415.876 73.256 415.444 72.408C415.028 71.544 414.74 70.6 414.58 69.576C414.436 68.552 414.364 67.56 414.364 66.6C414.364 65.64 414.436 64.648 414.58 63.624C414.74 62.6 415.028 61.664 415.444 60.816C415.876 59.952 416.468 59.248 417.22 58.704C417.988 58.144 418.972 57.864 420.172 57.864ZM420.172 73.056C420.764 73.056 421.26 72.888 421.66 72.552C422.06 72.2 422.372 71.736 422.596 71.16C422.836 70.568 423.004 69.88 423.1 69.096C423.196 68.312 423.244 67.48 423.244 66.6C423.244 65.72 423.196 64.896 423.1 64.128C423.004 63.344 422.836 62.656 422.596 62.064C422.372 61.472 422.06 61.008 421.66 60.672C421.26 60.32 420.764 60.144 420.172 60.144C419.564 60.144 419.06 60.32 418.66 60.672C418.276 61.008 417.964 61.472 417.724 62.064C417.5 62.656 417.34 63.344 417.244 64.128C417.148 64.896 417.1 65.72 417.1 66.6C417.1 67.48 417.148 68.312 417.244 69.096C417.34 69.88 417.5 70.568 417.724 71.16C417.964 71.736 418.276 72.2 418.66 72.552C419.06 72.888 419.564 73.056 420.172 73.056Z" fill="black"/>
<path d="M709.824 57.864H717.384C718.6 57.864 719.592 58.04 720.36 58.392C721.128 58.744 721.72 59.184 722.136 59.712C722.552 60.24 722.832 60.816 722.976 61.44C723.136 62.064 723.216 62.64 723.216 63.168C723.216 63.696 723.136 64.272 722.976 64.896C722.832 65.504 722.552 66.072 722.136 66.6C721.72 67.128 721.128 67.568 720.36 67.92C719.592 68.256 718.6 68.424 717.384 68.424H712.824V75H709.824V57.864ZM712.824 65.976H717.216C717.552 65.976 717.896 65.928 718.248 65.832C718.6 65.736 718.92 65.584 719.208 65.376C719.512 65.152 719.752 64.864 719.928 64.512C720.12 64.144 720.216 63.688 720.216 63.144C720.216 62.584 720.136 62.12 719.976 61.752C719.816 61.384 719.6 61.096 719.328 60.888C719.056 60.664 718.744 60.512 718.392 60.432C718.04 60.352 717.664 60.312 717.264 60.312H712.824V65.976ZM733.488 67.704C733.456 67.272 733.36 66.856 733.2 66.456C733.056 66.056 732.848 65.712 732.576 65.424C732.32 65.12 732 64.88 731.616 64.704C731.248 64.512 730.832 64.416 730.368 64.416C729.888 64.416 729.448 64.504 729.048 64.68C728.664 64.84 728.328 65.072 728.04 65.376C727.768 65.664 727.544 66.008 727.368 66.408C727.208 66.808 727.12 67.24 727.104 67.704H733.488ZM727.104 69.504C727.104 69.984 727.168 70.448 727.296 70.896C727.44 71.344 727.648 71.736 727.92 72.072C728.192 72.408 728.536 72.68 728.952 72.888C729.368 73.08 729.864 73.176 730.44 73.176C731.24 73.176 731.88 73.008 732.36 72.672C732.856 72.32 733.224 71.8 733.464 71.112H736.056C735.912 71.784 735.664 72.384 735.312 72.912C734.96 73.44 734.536 73.888 734.04 74.256C733.544 74.608 732.984 74.872 732.36 75.048C731.752 75.24 731.112 75.336 730.44 75.336C729.464 75.336 728.6 75.176 727.848 74.856C727.096 74.536 726.456 74.088 725.928 73.512C725.416 72.936 725.024 72.248 724.752 71.448C724.496 70.648 724.368 69.768 724.368 68.808C724.368 67.928 724.504 67.096 724.776 66.312C725.064 65.512 725.464 64.816 725.976 64.224C726.504 63.616 727.136 63.136 727.872 62.784C728.608 62.432 729.44 62.256 730.368 62.256C731.344 62.256 732.216 62.464 732.984 62.88C733.768 63.28 734.416 63.816 734.928 64.488C735.44 65.16 735.808 65.936 736.032 66.816C736.272 67.68 736.336 68.576 736.224 69.504H727.104ZM743.512 75.336C742.52 75.336 741.632 75.176 740.848 74.856C740.08 74.52 739.424 74.064 738.88 73.488C738.352 72.912 737.944 72.224 737.656 71.424C737.384 70.624 737.248 69.744 737.248 68.784C737.248 67.84 737.384 66.968 737.656 66.168C737.944 65.368 738.352 64.68 738.88 64.104C739.424 63.528 740.08 63.08 740.848 62.76C741.632 62.424 742.52 62.256 743.512 62.256C744.504 62.256 745.384 62.424 746.152 62.76C746.936 63.08 747.592 63.528 748.12 64.104C748.664 64.68 749.072 65.368 749.344 66.168C749.632 66.968 749.776 67.84 749.776 68.784C749.776 69.744 749.632 70.624 749.344 71.424C749.072 72.224 748.664 72.912 748.12 73.488C747.592 74.064 746.936 74.52 746.152 74.856C745.384 75.176 744.504 75.336 743.512 75.336ZM743.512 73.176C744.12 73.176 744.648 73.048 745.096 72.792C745.544 72.536 745.912 72.2 746.2 71.784C746.488 71.368 746.696 70.904 746.824 70.392C746.968 69.864 747.04 69.328 747.04 68.784C747.04 68.256 746.968 67.728 746.824 67.2C746.696 66.672 746.488 66.208 746.2 65.808C745.912 65.392 745.544 65.056 745.096 64.8C744.648 64.544 744.12 64.416 743.512 64.416C742.904 64.416 742.376 64.544 741.928 64.8C741.48 65.056 741.112 65.392 740.824 65.808C740.536 66.208 740.32 66.672 740.176 67.2C740.048 67.728 739.984 68.256 739.984 68.784C739.984 69.328 740.048 69.864 740.176 70.392C740.32 70.904 740.536 71.368 740.824 71.784C741.112 72.2 741.48 72.536 741.928 72.792C742.376 73.048 742.904 73.176 743.512 73.176ZM751.642 62.592H754.234V64.272H754.282C754.666 63.552 755.202 63.04 755.89 62.736C756.578 62.416 757.322 62.256 758.122 62.256C759.098 62.256 759.946 62.432 760.666 62.784C761.402 63.12 762.01 63.592 762.49 64.2C762.97 64.792 763.33 65.488 763.57 66.288C763.81 67.088 763.93 67.944 763.93 68.856C763.93 69.688 763.818 70.496 763.594 71.28C763.386 72.064 763.058 72.76 762.61 73.368C762.178 73.96 761.626 74.44 760.954 74.808C760.282 75.16 759.49 75.336 758.578 75.336C758.178 75.336 757.778 75.296 757.378 75.216C756.978 75.152 756.594 75.04 756.226 74.88C755.858 74.72 755.514 74.52 755.194 74.28C754.89 74.024 754.634 73.728 754.426 73.392H754.378V79.584H751.642V62.592ZM761.194 68.808C761.194 68.248 761.122 67.704 760.978 67.176C760.834 66.648 760.618 66.184 760.33 65.784C760.042 65.368 759.682 65.04 759.25 64.8C758.818 64.544 758.322 64.416 757.762 64.416C756.61 64.416 755.738 64.816 755.146 65.616C754.57 66.416 754.282 67.48 754.282 68.808C754.282 69.432 754.354 70.016 754.498 70.56C754.658 71.088 754.89 71.544 755.194 71.928C755.498 72.312 755.858 72.616 756.274 72.84C756.706 73.064 757.202 73.176 757.762 73.176C758.386 73.176 758.914 73.048 759.346 72.792C759.778 72.536 760.13 72.208 760.402 71.808C760.69 71.392 760.89 70.928 761.002 70.416C761.13 69.888 761.194 69.352 761.194 68.808ZM765.834 57.864H768.57V75H765.834V57.864ZM779.591 67.704C779.559 67.272 779.463 66.856 779.303 66.456C779.159 66.056 778.951 65.712 778.679 65.424C778.423 65.12 778.103 64.88 777.719 64.704C777.351 64.512 776.935 64.416 776.471 64.416C775.991 64.416 775.551 64.504 775.151 64.68C774.767 64.84 774.431 65.072 774.143 65.376C773.871 65.664 773.647 66.008 773.471 66.408C773.311 66.808 773.223 67.24 773.207 67.704H779.591ZM773.207 69.504C773.207 69.984 773.271 70.448 773.399 70.896C773.543 71.344 773.751 71.736 774.023 72.072C774.295 72.408 774.639 72.68 775.055 72.888C775.471 73.08 775.967 73.176 776.543 73.176C777.343 73.176 777.983 73.008 778.463 72.672C778.959 72.32 779.327 71.8 779.567 71.112H782.159C782.015 71.784 781.767 72.384 781.415 72.912C781.063 73.44 780.639 73.888 780.143 74.256C779.647 74.608 779.087 74.872 778.463 75.048C777.855 75.24 777.215 75.336 776.543 75.336C775.567 75.336 774.703 75.176 773.951 74.856C773.199 74.536 772.559 74.088 772.031 73.512C771.519 72.936 771.127 72.248 770.855 71.448C770.599 70.648 770.471 69.768 770.471 68.808C770.471 67.928 770.607 67.096 770.879 66.312C771.167 65.512 771.567 64.816 772.079 64.224C772.607 63.616 773.239 63.136 773.975 62.784C774.711 62.432 775.543 62.256 776.471 62.256C777.447 62.256 778.319 62.464 779.087 62.88C779.871 63.28 780.519 63.816 781.031 64.488C781.543 65.16 781.911 65.936 782.135 66.816C782.375 67.68 782.439 68.576 782.327 69.504H773.207Z" fill="#B6B6B6"/>
</g>
<defs>
<clipPath id="clip0_5_81">
<rect width="828" height="115" fill="white"/>
</clipPath>
</defs>
</svg>
