<svg width="828" height="115" viewBox="0 0 828 115" fill="none" xmlns="http://www.w3.org/2000/svg">
<g clip-path="url(#clip0_5_226)">
<rect x="54" y="15" width="90" height="25" fill="#861F6B"/>
<rect x="54" y="15" width="90" height="25" fill="#AF1B43"/>
<rect x="54" y="15" width="90" height="25" fill="#D8382E"/>
<rect x="54" y="15" width="90" height="25" fill="#FD6A0D"/>
<rect x="54" y="15" width="90" height="25" fill="#FEA83E"/>
<rect x="54" y="15" width="90" height="25" fill="#F2DF91"/>
<rect x="54" y="15" width="90" height="25" fill="#F9F0CF"/>
<rect x="234" y="15" width="90" height="25" fill="#FEA83E"/>
<rect x="414" y="15" width="90" height="25" fill="#D8382E"/>
<rect x="594" y="15" width="90" height="25" fill="#861F6B"/>
<rect x="144" y="15" width="90" height="25" fill="#F2DF91"/>
<rect x="324" y="15" width="90" height="25" fill="#FD6A0D"/>
<rect x="504" y="15" width="90" height="25" fill="#AF1B43"/>
<rect x="684" y="15" width="90" height="25" fill="#532046"/>
<path d="M144 50.5V15" stroke="black" stroke-width="2"/>
<path d="M504 50.5V15" stroke="black" stroke-width="2"/>
<path d="M234 50.5V15" stroke="black" stroke-width="2"/>
<path d="M594 50.5V15" stroke="black" stroke-width="2"/>
<path d="M324 50.5V15" stroke="black" stroke-width="2"/>
<path d="M684.137 50.5V15" stroke="black" stroke-width="2"/>
<path d="M675.986 75H664.514C664.53 73.608 664.866 72.392 665.522 71.352C666.178 70.312 667.074 69.408 668.21 68.64C668.754 68.24 669.322 67.856 669.914 67.488C670.506 67.104 671.05 66.696 671.546 66.264C672.042 65.832 672.45 65.368 672.77 64.872C673.09 64.36 673.258 63.776 673.274 63.12C673.274 62.816 673.234 62.496 673.154 62.16C673.09 61.808 672.954 61.488 672.746 61.2C672.538 60.896 672.25 60.648 671.882 60.456C671.514 60.248 671.034 60.144 670.442 60.144C669.898 60.144 669.442 60.256 669.074 60.48C668.722 60.688 668.434 60.984 668.21 61.368C668.002 61.736 667.842 62.176 667.73 62.688C667.634 63.2 667.578 63.752 667.562 64.344H664.826C664.826 63.416 664.946 62.56 665.186 61.776C665.442 60.976 665.818 60.288 666.314 59.712C666.81 59.136 667.41 58.688 668.114 58.368C668.834 58.032 669.666 57.864 670.61 57.864C671.634 57.864 672.49 58.032 673.178 58.368C673.866 58.704 674.418 59.128 674.834 59.64C675.266 60.152 675.57 60.712 675.746 61.32C675.922 61.912 676.01 62.48 676.01 63.024C676.01 63.696 675.906 64.304 675.698 64.848C675.49 65.392 675.21 65.896 674.858 66.36C674.506 66.808 674.106 67.224 673.658 67.608C673.21 67.992 672.746 68.352 672.266 68.688C671.786 69.024 671.306 69.344 670.826 69.648C670.346 69.952 669.898 70.256 669.482 70.56C669.082 70.864 668.73 71.184 668.426 71.52C668.122 71.84 667.914 72.184 667.802 72.552H675.986V75ZM679.866 58.2H688.554V60.648H681.906L681.042 64.92L681.09 64.968C681.458 64.552 681.922 64.24 682.482 64.032C683.058 63.808 683.626 63.696 684.186 63.696C685.018 63.696 685.762 63.84 686.418 64.128C687.074 64.4 687.626 64.792 688.074 65.304C688.522 65.8 688.858 66.392 689.082 67.08C689.322 67.768 689.442 68.512 689.442 69.312C689.442 69.984 689.33 70.68 689.106 71.4C688.898 72.104 688.554 72.752 688.074 73.344C687.61 73.92 687.01 74.4 686.274 74.784C685.538 75.152 684.658 75.336 683.634 75.336C682.818 75.336 682.058 75.224 681.354 75C680.666 74.792 680.058 74.472 679.53 74.04C679.002 73.608 678.578 73.08 678.258 72.456C677.954 71.816 677.786 71.072 677.754 70.224H680.49C680.57 71.136 680.882 71.84 681.426 72.336C681.97 72.816 682.69 73.056 683.586 73.056C684.162 73.056 684.65 72.96 685.05 72.768C685.45 72.576 685.77 72.312 686.01 71.976C686.266 71.64 686.442 71.248 686.538 70.8C686.65 70.352 686.706 69.872 686.706 69.36C686.706 68.896 686.642 68.456 686.514 68.04C686.386 67.608 686.194 67.232 685.938 66.912C685.682 66.592 685.346 66.336 684.93 66.144C684.53 65.952 684.058 65.856 683.514 65.856C682.938 65.856 682.394 65.968 681.882 66.192C681.386 66.4 681.026 66.8 680.802 67.392H678.066L679.866 58.2ZM696.922 57.864C698.122 57.864 699.098 58.144 699.85 58.704C700.618 59.248 701.21 59.952 701.626 60.816C702.058 61.664 702.346 62.6 702.49 63.624C702.65 64.648 702.73 65.64 702.73 66.6C702.73 67.56 702.65 68.552 702.49 69.576C702.346 70.6 702.058 71.544 701.626 72.408C701.21 73.256 700.618 73.96 699.85 74.52C699.098 75.064 698.122 75.336 696.922 75.336C695.722 75.336 694.738 75.064 693.97 74.52C693.218 73.96 692.626 73.256 692.194 72.408C691.778 71.544 691.49 70.6 691.33 69.576C691.186 68.552 691.114 67.56 691.114 66.6C691.114 65.64 691.186 64.648 691.33 63.624C691.49 62.6 691.778 61.664 692.194 60.816C692.626 59.952 693.218 59.248 693.97 58.704C694.738 58.144 695.722 57.864 696.922 57.864ZM696.922 73.056C697.514 73.056 698.01 72.888 698.41 72.552C698.81 72.2 699.122 71.736 699.346 71.16C699.586 70.568 699.754 69.88 699.85 69.096C699.946 68.312 699.994 67.48 699.994 66.6C699.994 65.72 699.946 64.896 699.85 64.128C699.754 63.344 699.586 62.656 699.346 62.064C699.122 61.472 698.81 61.008 698.41 60.672C698.01 60.32 697.514 60.144 696.922 60.144C696.314 60.144 695.81 60.32 695.41 60.672C695.026 61.008 694.714 61.472 694.474 62.064C694.25 62.656 694.09 63.344 693.994 64.128C693.898 64.896 693.85 65.72 693.85 66.6C693.85 67.48 693.898 68.312 693.994 69.096C694.09 69.88 694.25 70.568 694.474 71.16C694.714 71.736 695.026 72.2 695.41 72.552C695.81 72.888 696.314 73.056 696.922 73.056Z" fill="black"/>
<path d="M131.518 60.984C132.094 60.984 132.654 60.936 133.198 60.84C133.742 60.744 134.23 60.584 134.662 60.36C135.11 60.136 135.486 59.848 135.79 59.496C136.11 59.144 136.318 58.712 136.414 58.2H138.646V75H135.646V63.144H131.518V60.984ZM150.254 57.864C151.454 57.864 152.43 58.144 153.182 58.704C153.95 59.248 154.542 59.952 154.958 60.816C155.39 61.664 155.678 62.6 155.822 63.624C155.982 64.648 156.062 65.64 156.062 66.6C156.062 67.56 155.982 68.552 155.822 69.576C155.678 70.6 155.39 71.544 154.958 72.408C154.542 73.256 153.95 73.96 153.182 74.52C152.43 75.064 151.454 75.336 150.254 75.336C149.054 75.336 148.07 75.064 147.302 74.52C146.55 73.96 145.958 73.256 145.526 72.408C145.11 71.544 144.822 70.6 144.662 69.576C144.518 68.552 144.446 67.56 144.446 66.6C144.446 65.64 144.518 64.648 144.662 63.624C144.822 62.6 145.11 61.664 145.526 60.816C145.958 59.952 146.55 59.248 147.302 58.704C148.07 58.144 149.054 57.864 150.254 57.864ZM150.254 73.056C150.846 73.056 151.342 72.888 151.742 72.552C152.142 72.2 152.454 71.736 152.678 71.16C152.918 70.568 153.086 69.88 153.182 69.096C153.278 68.312 153.326 67.48 153.326 66.6C153.326 65.72 153.278 64.896 153.182 64.128C153.086 63.344 152.918 62.656 152.678 62.064C152.454 61.472 152.142 61.008 151.742 60.672C151.342 60.32 150.846 60.144 150.254 60.144C149.646 60.144 149.142 60.32 148.742 60.672C148.358 61.008 148.046 61.472 147.806 62.064C147.582 62.656 147.422 63.344 147.326 64.128C147.23 64.896 147.182 65.72 147.182 66.6C147.182 67.48 147.23 68.312 147.326 69.096C147.422 69.88 147.582 70.568 147.806 71.16C148.046 71.736 148.358 72.2 148.742 72.552C149.142 72.888 149.646 73.056 150.254 73.056Z" fill="black"/>
<path d="M414 50.5V15" stroke="black" stroke-width="2"/>
<path d="M712.824 65.04H717.72C718.44 65.04 719.04 64.84 719.52 64.44C720 64.024 720.24 63.432 720.24 62.664C720.24 61.8 720.024 61.192 719.592 60.84C719.16 60.488 718.536 60.312 717.72 60.312H712.824V65.04ZM709.824 57.864H718.152C719.688 57.864 720.92 58.216 721.848 58.92C722.776 59.624 723.24 60.688 723.24 62.112C723.24 62.976 723.024 63.72 722.592 64.344C722.176 64.952 721.576 65.424 720.792 65.76V65.808C721.848 66.032 722.648 66.536 723.192 67.32C723.736 68.088 724.008 69.056 724.008 70.224C724.008 70.896 723.888 71.528 723.648 72.12C723.408 72.696 723.032 73.2 722.52 73.632C722.008 74.048 721.352 74.384 720.552 74.64C719.752 74.88 718.8 75 717.696 75H709.824V57.864ZM712.824 72.552H718.128C719.04 72.552 719.744 72.32 720.24 71.856C720.752 71.376 721.008 70.704 721.008 69.84C721.008 68.992 720.752 68.344 720.24 67.896C719.744 67.432 719.04 67.2 718.128 67.2H712.824V72.552ZM736.754 75H734.066V73.272H734.018C733.682 73.896 733.178 74.4 732.506 74.784C731.85 75.152 731.178 75.336 730.49 75.336C728.858 75.336 727.674 74.936 726.938 74.136C726.218 73.32 725.858 72.096 725.858 70.464V62.592H728.594V70.2C728.594 71.288 728.802 72.056 729.218 72.504C729.634 72.952 730.218 73.176 730.97 73.176C731.546 73.176 732.026 73.088 732.41 72.912C732.794 72.736 733.106 72.504 733.346 72.216C733.586 71.912 733.754 71.552 733.85 71.136C733.962 70.72 734.018 70.272 734.018 69.792V62.592H736.754V75ZM739.232 57.864H741.968V60.456H739.232V57.864ZM739.232 62.592H741.968V75H739.232V62.592ZM744.541 57.864H747.277V75H744.541V57.864ZM761.466 75H758.874V73.32H758.826C758.458 74.04 757.922 74.56 757.218 74.88C756.514 75.184 755.77 75.336 754.986 75.336C754.01 75.336 753.154 75.168 752.418 74.832C751.698 74.48 751.098 74.008 750.618 73.416C750.138 72.824 749.778 72.128 749.538 71.328C749.298 70.512 749.178 69.64 749.178 68.712C749.178 67.592 749.33 66.624 749.634 65.808C749.938 64.992 750.338 64.32 750.834 63.792C751.346 63.264 751.922 62.88 752.562 62.64C753.218 62.384 753.882 62.256 754.554 62.256C754.938 62.256 755.33 62.296 755.73 62.376C756.13 62.44 756.514 62.552 756.882 62.712C757.25 62.872 757.586 63.08 757.89 63.336C758.21 63.576 758.474 63.864 758.682 64.2H758.73V57.864H761.466V75ZM751.914 68.928C751.914 69.456 751.978 69.976 752.106 70.488C752.25 71 752.458 71.456 752.73 71.856C753.018 72.256 753.378 72.576 753.81 72.816C754.242 73.056 754.754 73.176 755.346 73.176C755.954 73.176 756.474 73.048 756.906 72.792C757.354 72.536 757.714 72.2 757.986 71.784C758.274 71.368 758.482 70.904 758.61 70.392C758.754 69.864 758.826 69.328 758.826 68.784C758.826 67.408 758.514 66.336 757.89 65.568C757.282 64.8 756.45 64.416 755.394 64.416C754.754 64.416 754.21 64.552 753.762 64.824C753.33 65.08 752.97 65.424 752.682 65.856C752.41 66.272 752.21 66.752 752.082 67.296C751.97 67.824 751.914 68.368 751.914 68.928ZM764.042 57.864H766.778V60.456H764.042V57.864ZM764.042 62.592H766.778V75H764.042V62.592ZM769.279 62.592H771.871V64.416L771.919 64.464C772.335 63.776 772.879 63.24 773.551 62.856C774.223 62.456 774.967 62.256 775.783 62.256C777.143 62.256 778.215 62.608 778.999 63.312C779.783 64.016 780.175 65.072 780.175 66.48V75H777.439V67.2C777.407 66.224 777.199 65.52 776.815 65.088C776.431 64.64 775.831 64.416 775.015 64.416C774.551 64.416 774.135 64.504 773.767 64.68C773.399 64.84 773.087 65.072 772.831 65.376C772.575 65.664 772.375 66.008 772.231 66.408C772.087 66.808 772.015 67.232 772.015 67.68V75H769.279V62.592ZM794.052 74.352C794.052 76.224 793.524 77.616 792.468 78.528C791.428 79.456 789.924 79.92 787.956 79.92C787.332 79.92 786.7 79.856 786.06 79.728C785.436 79.6 784.86 79.384 784.332 79.08C783.82 78.776 783.388 78.376 783.036 77.88C782.684 77.384 782.476 76.776 782.412 76.056H785.148C785.228 76.44 785.364 76.752 785.556 76.992C785.748 77.232 785.972 77.416 786.228 77.544C786.5 77.688 786.796 77.776 787.116 77.808C787.436 77.856 787.772 77.88 788.124 77.88C789.228 77.88 790.036 77.608 790.548 77.064C791.06 76.52 791.316 75.736 791.316 74.712V72.816H791.268C790.884 73.504 790.356 74.04 789.684 74.424C789.028 74.808 788.316 75 787.548 75C786.556 75 785.708 74.832 785.004 74.496C784.316 74.144 783.74 73.672 783.276 73.08C782.828 72.472 782.5 71.776 782.292 70.992C782.084 70.208 781.98 69.368 781.98 68.472C781.98 67.64 782.108 66.848 782.364 66.096C782.62 65.344 782.988 64.688 783.468 64.128C783.948 63.552 784.532 63.096 785.22 62.76C785.924 62.424 786.716 62.256 787.596 62.256C788.38 62.256 789.1 62.424 789.756 62.76C790.412 63.08 790.916 63.592 791.268 64.296H791.316V62.592H794.052V74.352ZM787.98 72.84C788.588 72.84 789.1 72.72 789.516 72.48C789.948 72.224 790.292 71.896 790.548 71.496C790.82 71.08 791.012 70.616 791.124 70.104C791.252 69.576 791.316 69.048 791.316 68.52C791.316 67.992 791.252 67.48 791.124 66.984C790.996 66.488 790.796 66.048 790.524 65.664C790.268 65.28 789.924 64.976 789.492 64.752C789.076 64.528 788.572 64.416 787.98 64.416C787.372 64.416 786.86 64.544 786.444 64.8C786.028 65.056 785.692 65.392 785.436 65.808C785.18 66.208 784.996 66.672 784.884 67.2C784.772 67.712 784.716 68.224 784.716 68.736C784.716 69.248 784.78 69.752 784.908 70.248C785.036 70.728 785.228 71.16 785.484 71.544C785.756 71.928 786.092 72.24 786.492 72.48C786.908 72.72 787.404 72.84 787.98 72.84ZM798.391 71.016C798.471 71.816 798.775 72.376 799.303 72.696C799.831 73.016 800.463 73.176 801.199 73.176C801.455 73.176 801.743 73.16 802.063 73.128C802.399 73.08 802.711 73 802.999 72.888C803.287 72.776 803.519 72.616 803.695 72.408C803.887 72.184 803.975 71.896 803.959 71.544C803.943 71.192 803.815 70.904 803.575 70.68C803.335 70.456 803.023 70.28 802.639 70.152C802.271 70.008 801.847 69.888 801.367 69.792C800.887 69.696 800.399 69.592 799.903 69.48C799.391 69.368 798.895 69.232 798.415 69.072C797.951 68.912 797.527 68.696 797.143 68.424C796.775 68.152 796.479 67.808 796.255 67.392C796.031 66.96 795.919 66.432 795.919 65.808C795.919 65.136 796.079 64.576 796.399 64.128C796.735 63.664 797.151 63.296 797.647 63.024C798.159 62.736 798.719 62.536 799.327 62.424C799.951 62.312 800.543 62.256 801.103 62.256C801.743 62.256 802.351 62.328 802.927 62.472C803.519 62.6 804.047 62.816 804.511 63.12C804.991 63.424 805.383 63.824 805.687 64.32C806.007 64.8 806.207 65.384 806.287 66.072H803.431C803.303 65.416 802.999 64.976 802.519 64.752C802.055 64.528 801.519 64.416 800.911 64.416C800.719 64.416 800.487 64.432 800.215 64.464C799.959 64.496 799.711 64.56 799.471 64.656C799.247 64.736 799.055 64.864 798.895 65.04C798.735 65.2 798.655 65.416 798.655 65.688C798.655 66.024 798.767 66.296 798.991 66.504C799.231 66.712 799.535 66.888 799.903 67.032C800.287 67.16 800.719 67.272 801.199 67.368C801.679 67.464 802.175 67.568 802.687 67.68C803.183 67.792 803.671 67.928 804.151 68.088C804.631 68.248 805.055 68.464 805.423 68.736C805.807 69.008 806.111 69.352 806.335 69.768C806.575 70.184 806.695 70.696 806.695 71.304C806.695 72.04 806.527 72.664 806.191 73.176C805.855 73.688 805.415 74.104 804.871 74.424C804.343 74.744 803.751 74.976 803.095 75.12C802.439 75.264 801.791 75.336 801.151 75.336C800.367 75.336 799.639 75.248 798.967 75.072C798.311 74.896 797.735 74.632 797.239 74.28C796.759 73.912 796.375 73.464 796.087 72.936C795.815 72.392 795.671 71.752 795.655 71.016H798.391Z" fill="#B6B6B6"/>
</g>
<defs>
<clipPath id="clip0_5_226">
<rect width="828" height="115" fill="white"/>
</clipPath>
</defs>
</svg>
