<svg width="828" height="115" viewBox="0 0 828 115" fill="none" xmlns="http://www.w3.org/2000/svg">
<g clip-path="url(#clip0_5_160)">
<rect x="54" y="15" width="90" height="25" fill="#861F6B"/>
<rect x="54" y="15" width="90" height="25" fill="#AF1B43"/>
<rect x="54" y="15" width="90" height="25" fill="#D8382E"/>
<rect x="54" y="15" width="90" height="25" fill="#FD6A0D"/>
<rect x="54" y="15" width="90" height="25" fill="#FEA83E"/>
<rect x="54" y="15" width="90" height="25" fill="#F2DF91"/>
<rect x="54" y="15" width="90" height="25" fill="#F9F0CF"/>
<rect x="234" y="15" width="90" height="25" fill="#FEA83E"/>
<rect x="414" y="15" width="90" height="25" fill="#D8382E"/>
<rect x="594" y="15" width="90" height="25" fill="#861F6B"/>
<rect x="144" y="15" width="90" height="25" fill="#F2DF91"/>
<rect x="324" y="15" width="90" height="25" fill="#FD6A0D"/>
<rect x="504" y="15" width="90" height="25" fill="#AF1B43"/>
<rect x="684" y="15" width="90" height="25" fill="#532046"/>
<path d="M144 50.5V15" stroke="black" stroke-width="2"/>
<path d="M504 50.5V15" stroke="black" stroke-width="2"/>
<path d="M234 50.5V15" stroke="black" stroke-width="2"/>
<path d="M594 50.5V15" stroke="black" stroke-width="2"/>
<path d="M324 50.5V15" stroke="black" stroke-width="2"/>
<path d="M684.137 50.5V15" stroke="black" stroke-width="2"/>
<path d="M666.53 58.2H675.218V60.648H668.57L667.706 64.92L667.754 64.968C668.122 64.552 668.586 64.24 669.146 64.032C669.722 63.808 670.29 63.696 670.85 63.696C671.682 63.696 672.426 63.84 673.082 64.128C673.738 64.4 674.29 64.792 674.738 65.304C675.186 65.8 675.522 66.392 675.746 67.08C675.986 67.768 676.106 68.512 676.106 69.312C676.106 69.984 675.994 70.68 675.77 71.4C675.562 72.104 675.218 72.752 674.738 73.344C674.274 73.92 673.674 74.4 672.938 74.784C672.202 75.152 671.322 75.336 670.298 75.336C669.482 75.336 668.722 75.224 668.018 75C667.33 74.792 666.722 74.472 666.194 74.04C665.666 73.608 665.242 73.08 664.922 72.456C664.618 71.816 664.45 71.072 664.418 70.224H667.154C667.234 71.136 667.546 71.84 668.09 72.336C668.634 72.816 669.354 73.056 670.25 73.056C670.826 73.056 671.314 72.96 671.714 72.768C672.114 72.576 672.434 72.312 672.674 71.976C672.93 71.64 673.106 71.248 673.202 70.8C673.314 70.352 673.37 69.872 673.37 69.36C673.37 68.896 673.306 68.456 673.178 68.04C673.05 67.608 672.858 67.232 672.602 66.912C672.346 66.592 672.01 66.336 671.594 66.144C671.194 65.952 670.722 65.856 670.178 65.856C669.602 65.856 669.058 65.968 668.546 66.192C668.05 66.4 667.69 66.8 667.466 67.392H664.73L666.53 58.2ZM683.586 57.864C684.786 57.864 685.762 58.144 686.514 58.704C687.282 59.248 687.874 59.952 688.29 60.816C688.722 61.664 689.01 62.6 689.154 63.624C689.314 64.648 689.394 65.64 689.394 66.6C689.394 67.56 689.314 68.552 689.154 69.576C689.01 70.6 688.722 71.544 688.29 72.408C687.874 73.256 687.282 73.96 686.514 74.52C685.762 75.064 684.786 75.336 683.586 75.336C682.386 75.336 681.402 75.064 680.634 74.52C679.882 73.96 679.29 73.256 678.858 72.408C678.442 71.544 678.154 70.6 677.994 69.576C677.85 68.552 677.778 67.56 677.778 66.6C677.778 65.64 677.85 64.648 677.994 63.624C678.154 62.6 678.442 61.664 678.858 60.816C679.29 59.952 679.882 59.248 680.634 58.704C681.402 58.144 682.386 57.864 683.586 57.864ZM683.586 73.056C684.178 73.056 684.674 72.888 685.074 72.552C685.474 72.2 685.786 71.736 686.01 71.16C686.25 70.568 686.418 69.88 686.514 69.096C686.61 68.312 686.658 67.48 686.658 66.6C686.658 65.72 686.61 64.896 686.514 64.128C686.418 63.344 686.25 62.656 686.01 62.064C685.786 61.472 685.474 61.008 685.074 60.672C684.674 60.32 684.178 60.144 683.586 60.144C682.978 60.144 682.474 60.32 682.074 60.672C681.69 61.008 681.378 61.472 681.138 62.064C680.914 62.656 680.754 63.344 680.658 64.128C680.562 64.896 680.514 65.72 680.514 66.6C680.514 67.48 680.562 68.312 680.658 69.096C680.754 69.88 680.914 70.568 681.138 71.16C681.378 71.736 681.69 72.2 682.074 72.552C682.474 72.888 682.978 73.056 683.586 73.056ZM696.922 57.864C698.122 57.864 699.098 58.144 699.85 58.704C700.618 59.248 701.21 59.952 701.626 60.816C702.058 61.664 702.346 62.6 702.49 63.624C702.65 64.648 702.73 65.64 702.73 66.6C702.73 67.56 702.65 68.552 702.49 69.576C702.346 70.6 702.058 71.544 701.626 72.408C701.21 73.256 700.618 73.96 699.85 74.52C699.098 75.064 698.122 75.336 696.922 75.336C695.722 75.336 694.738 75.064 693.97 74.52C693.218 73.96 692.626 73.256 692.194 72.408C691.778 71.544 691.49 70.6 691.33 69.576C691.186 68.552 691.114 67.56 691.114 66.6C691.114 65.64 691.186 64.648 691.33 63.624C691.49 62.6 691.778 61.664 692.194 60.816C692.626 59.952 693.218 59.248 693.97 58.704C694.738 58.144 695.722 57.864 696.922 57.864ZM696.922 73.056C697.514 73.056 698.01 72.888 698.41 72.552C698.81 72.2 699.122 71.736 699.346 71.16C699.586 70.568 699.754 69.88 699.85 69.096C699.946 68.312 699.994 67.48 699.994 66.6C699.994 65.72 699.946 64.896 699.85 64.128C699.754 63.344 699.586 62.656 699.346 62.064C699.122 61.472 698.81 61.008 698.41 60.672C698.01 60.32 697.514 60.144 696.922 60.144C696.314 60.144 695.81 60.32 695.41 60.672C695.026 61.008 694.714 61.472 694.474 62.064C694.25 62.656 694.09 63.344 693.994 64.128C693.898 64.896 693.85 65.72 693.85 66.6C693.85 67.48 693.898 68.312 693.994 69.096C694.09 69.88 694.25 70.568 694.474 71.16C694.714 71.736 695.026 72.2 695.41 72.552C695.81 72.888 696.314 73.056 696.922 73.056Z" fill="black"/>
<path d="M131.518 60.984C132.094 60.984 132.654 60.936 133.198 60.84C133.742 60.744 134.23 60.584 134.662 60.36C135.11 60.136 135.486 59.848 135.79 59.496C136.11 59.144 136.318 58.712 136.414 58.2H138.646V75H135.646V63.144H131.518V60.984ZM150.254 57.864C151.454 57.864 152.43 58.144 153.182 58.704C153.95 59.248 154.542 59.952 154.958 60.816C155.39 61.664 155.678 62.6 155.822 63.624C155.982 64.648 156.062 65.64 156.062 66.6C156.062 67.56 155.982 68.552 155.822 69.576C155.678 70.6 155.39 71.544 154.958 72.408C154.542 73.256 153.95 73.96 153.182 74.52C152.43 75.064 151.454 75.336 150.254 75.336C149.054 75.336 148.07 75.064 147.302 74.52C146.55 73.96 145.958 73.256 145.526 72.408C145.11 71.544 144.822 70.6 144.662 69.576C144.518 68.552 144.446 67.56 144.446 66.6C144.446 65.64 144.518 64.648 144.662 63.624C144.822 62.6 145.11 61.664 145.526 60.816C145.958 59.952 146.55 59.248 147.302 58.704C148.07 58.144 149.054 57.864 150.254 57.864ZM150.254 73.056C150.846 73.056 151.342 72.888 151.742 72.552C152.142 72.2 152.454 71.736 152.678 71.16C152.918 70.568 153.086 69.88 153.182 69.096C153.278 68.312 153.326 67.48 153.326 66.6C153.326 65.72 153.278 64.896 153.182 64.128C153.086 63.344 152.918 62.656 152.678 62.064C152.454 61.472 152.142 61.008 151.742 60.672C151.342 60.32 150.846 60.144 150.254 60.144C149.646 60.144 149.142 60.32 148.742 60.672C148.358 61.008 148.046 61.472 147.806 62.064C147.582 62.656 147.422 63.344 147.326 64.128C147.23 64.896 147.182 65.72 147.182 66.6C147.182 67.48 147.23 68.312 147.326 69.096C147.422 69.88 147.582 70.568 147.806 71.16C148.046 71.736 148.358 72.2 148.742 72.552C149.142 72.888 149.646 73.056 150.254 73.056Z" fill="black"/>
<path d="M414 50.5V15" stroke="black" stroke-width="2"/>
<path d="M712.824 65.04H717.72C718.44 65.04 719.04 64.84 719.52 64.44C720 64.024 720.24 63.432 720.24 62.664C720.24 61.8 720.024 61.192 719.592 60.84C719.16 60.488 718.536 60.312 717.72 60.312H712.824V65.04ZM709.824 57.864H718.152C719.688 57.864 720.92 58.216 721.848 58.92C722.776 59.624 723.24 60.688 723.24 62.112C723.24 62.976 723.024 63.72 722.592 64.344C722.176 64.952 721.576 65.424 720.792 65.76V65.808C721.848 66.032 722.648 66.536 723.192 67.32C723.736 68.088 724.008 69.056 724.008 70.224C724.008 70.896 723.888 71.528 723.648 72.12C723.408 72.696 723.032 73.2 722.52 73.632C722.008 74.048 721.352 74.384 720.552 74.64C719.752 74.88 718.8 75 717.696 75H709.824V57.864ZM712.824 72.552H718.128C719.04 72.552 719.744 72.32 720.24 71.856C720.752 71.376 721.008 70.704 721.008 69.84C721.008 68.992 720.752 68.344 720.24 67.896C719.744 67.432 719.04 67.2 718.128 67.2H712.824V72.552ZM736.754 75H734.066V73.272H734.018C733.682 73.896 733.178 74.4 732.506 74.784C731.85 75.152 731.178 75.336 730.49 75.336C728.858 75.336 727.674 74.936 726.938 74.136C726.218 73.32 725.858 72.096 725.858 70.464V62.592H728.594V70.2C728.594 71.288 728.802 72.056 729.218 72.504C729.634 72.952 730.218 73.176 730.97 73.176C731.546 73.176 732.026 73.088 732.41 72.912C732.794 72.736 733.106 72.504 733.346 72.216C733.586 71.912 733.754 71.552 733.85 71.136C733.962 70.72 734.018 70.272 734.018 69.792V62.592H736.754V75ZM739.232 57.864H741.968V60.456H739.232V57.864ZM739.232 62.592H741.968V75H739.232V62.592ZM744.541 57.864H747.277V75H744.541V57.864ZM761.466 75H758.874V73.32H758.826C758.458 74.04 757.922 74.56 757.218 74.88C756.514 75.184 755.77 75.336 754.986 75.336C754.01 75.336 753.154 75.168 752.418 74.832C751.698 74.48 751.098 74.008 750.618 73.416C750.138 72.824 749.778 72.128 749.538 71.328C749.298 70.512 749.178 69.64 749.178 68.712C749.178 67.592 749.33 66.624 749.634 65.808C749.938 64.992 750.338 64.32 750.834 63.792C751.346 63.264 751.922 62.88 752.562 62.64C753.218 62.384 753.882 62.256 754.554 62.256C754.938 62.256 755.33 62.296 755.73 62.376C756.13 62.44 756.514 62.552 756.882 62.712C757.25 62.872 757.586 63.08 757.89 63.336C758.21 63.576 758.474 63.864 758.682 64.2H758.73V57.864H761.466V75ZM751.914 68.928C751.914 69.456 751.978 69.976 752.106 70.488C752.25 71 752.458 71.456 752.73 71.856C753.018 72.256 753.378 72.576 753.81 72.816C754.242 73.056 754.754 73.176 755.346 73.176C755.954 73.176 756.474 73.048 756.906 72.792C757.354 72.536 757.714 72.2 757.986 71.784C758.274 71.368 758.482 70.904 758.61 70.392C758.754 69.864 758.826 69.328 758.826 68.784C758.826 67.408 758.514 66.336 757.89 65.568C757.282 64.8 756.45 64.416 755.394 64.416C754.754 64.416 754.21 64.552 753.762 64.824C753.33 65.08 752.97 65.424 752.682 65.856C752.41 66.272 752.21 66.752 752.082 67.296C751.97 67.824 751.914 68.368 751.914 68.928ZM764.042 57.864H766.778V60.456H764.042V57.864ZM764.042 62.592H766.778V75H764.042V62.592ZM769.279 62.592H771.871V64.416L771.919 64.464C772.335 63.776 772.879 63.24 773.551 62.856C774.223 62.456 774.967 62.256 775.783 62.256C777.143 62.256 778.215 62.608 778.999 63.312C779.783 64.016 780.175 65.072 780.175 66.48V75H777.439V67.2C777.407 66.224 777.199 65.52 776.815 65.088C776.431 64.64 775.831 64.416 775.015 64.416C774.551 64.416 774.135 64.504 773.767 64.68C773.399 64.84 773.087 65.072 772.831 65.376C772.575 65.664 772.375 66.008 772.231 66.408C772.087 66.808 772.015 67.232 772.015 67.68V75H769.279V62.592ZM794.052 74.352C794.052 76.224 793.524 77.616 792.468 78.528C791.428 79.456 789.924 79.92 787.956 79.92C787.332 79.92 786.7 79.856 786.06 79.728C785.436 79.6 784.86 79.384 784.332 79.08C783.82 78.776 783.388 78.376 783.036 77.88C782.684 77.384 782.476 76.776 782.412 76.056H785.148C785.228 76.44 785.364 76.752 785.556 76.992C785.748 77.232 785.972 77.416 786.228 77.544C786.5 77.688 786.796 77.776 787.116 77.808C787.436 77.856 787.772 77.88 788.124 77.88C789.228 77.88 790.036 77.608 790.548 77.064C791.06 76.52 791.316 75.736 791.316 74.712V72.816H791.268C790.884 73.504 790.356 74.04 789.684 74.424C789.028 74.808 788.316 75 787.548 75C786.556 75 785.708 74.832 785.004 74.496C784.316 74.144 783.74 73.672 783.276 73.08C782.828 72.472 782.5 71.776 782.292 70.992C782.084 70.208 781.98 69.368 781.98 68.472C781.98 67.64 782.108 66.848 782.364 66.096C782.62 65.344 782.988 64.688 783.468 64.128C783.948 63.552 784.532 63.096 785.22 62.76C785.924 62.424 786.716 62.256 787.596 62.256C788.38 62.256 789.1 62.424 789.756 62.76C790.412 63.08 790.916 63.592 791.268 64.296H791.316V62.592H794.052V74.352ZM787.98 72.84C788.588 72.84 789.1 72.72 789.516 72.48C789.948 72.224 790.292 71.896 790.548 71.496C790.82 71.08 791.012 70.616 791.124 70.104C791.252 69.576 791.316 69.048 791.316 68.52C791.316 67.992 791.252 67.48 791.124 66.984C790.996 66.488 790.796 66.048 790.524 65.664C790.268 65.28 789.924 64.976 789.492 64.752C789.076 64.528 788.572 64.416 787.98 64.416C787.372 64.416 786.86 64.544 786.444 64.8C786.028 65.056 785.692 65.392 785.436 65.808C785.18 66.208 784.996 66.672 784.884 67.2C784.772 67.712 784.716 68.224 784.716 68.736C784.716 69.248 784.78 69.752 784.908 70.248C785.036 70.728 785.228 71.16 785.484 71.544C785.756 71.928 786.092 72.24 786.492 72.48C786.908 72.72 787.404 72.84 787.98 72.84ZM798.391 71.016C798.471 71.816 798.775 72.376 799.303 72.696C799.831 73.016 800.463 73.176 801.199 73.176C801.455 73.176 801.743 73.16 802.063 73.128C802.399 73.08 802.711 73 802.999 72.888C803.287 72.776 803.519 72.616 803.695 72.408C803.887 72.184 803.975 71.896 803.959 71.544C803.943 71.192 803.815 70.904 803.575 70.68C803.335 70.456 803.023 70.28 802.639 70.152C802.271 70.008 801.847 69.888 801.367 69.792C800.887 69.696 800.399 69.592 799.903 69.48C799.391 69.368 798.895 69.232 798.415 69.072C797.951 68.912 797.527 68.696 797.143 68.424C796.775 68.152 796.479 67.808 796.255 67.392C796.031 66.96 795.919 66.432 795.919 65.808C795.919 65.136 796.079 64.576 796.399 64.128C796.735 63.664 797.151 63.296 797.647 63.024C798.159 62.736 798.719 62.536 799.327 62.424C799.951 62.312 800.543 62.256 801.103 62.256C801.743 62.256 802.351 62.328 802.927 62.472C803.519 62.6 804.047 62.816 804.511 63.12C804.991 63.424 805.383 63.824 805.687 64.32C806.007 64.8 806.207 65.384 806.287 66.072H803.431C803.303 65.416 802.999 64.976 802.519 64.752C802.055 64.528 801.519 64.416 800.911 64.416C800.719 64.416 800.487 64.432 800.215 64.464C799.959 64.496 799.711 64.56 799.471 64.656C799.247 64.736 799.055 64.864 798.895 65.04C798.735 65.2 798.655 65.416 798.655 65.688C798.655 66.024 798.767 66.296 798.991 66.504C799.231 66.712 799.535 66.888 799.903 67.032C800.287 67.16 800.719 67.272 801.199 67.368C801.679 67.464 802.175 67.568 802.687 67.68C803.183 67.792 803.671 67.928 804.151 68.088C804.631 68.248 805.055 68.464 805.423 68.736C805.807 69.008 806.111 69.352 806.335 69.768C806.575 70.184 806.695 70.696 806.695 71.304C806.695 72.04 806.527 72.664 806.191 73.176C805.855 73.688 805.415 74.104 804.871 74.424C804.343 74.744 803.751 74.976 803.095 75.12C802.439 75.264 801.791 75.336 801.151 75.336C800.367 75.336 799.639 75.248 798.967 75.072C798.311 74.896 797.735 74.632 797.239 74.28C796.759 73.912 796.375 73.464 796.087 72.936C795.815 72.392 795.671 71.752 795.655 71.016H798.391Z" fill="#B6B6B6"/>
</g>
<defs>
<clipPath id="clip0_5_160">
<rect width="828" height="115" fill="white"/>
</clipPath>
</defs>
</svg>
