<svg width="828" height="115" viewBox="0 0 828 115" fill="none" xmlns="http://www.w3.org/2000/svg">
<g clip-path="url(#clip0_5_193)">
<rect x="54" y="15" width="90" height="25" fill="#861F6B"/>
<rect x="54" y="15" width="90" height="25" fill="#AF1B43"/>
<rect x="54" y="15" width="90" height="25" fill="#D8382E"/>
<rect x="54" y="15" width="90" height="25" fill="#FD6A0D"/>
<rect x="54" y="15" width="90" height="25" fill="#FEA83E"/>
<rect x="54" y="15" width="90" height="25" fill="#F2DF91"/>
<rect x="54" y="15" width="90" height="25" fill="#F9F0CF"/>
<rect x="234" y="15" width="90" height="25" fill="#FEA83E"/>
<rect x="414" y="15" width="90" height="25" fill="#D8382E"/>
<rect x="594" y="15" width="90" height="25" fill="#861F6B"/>
<rect x="144" y="15" width="90" height="25" fill="#F2DF91"/>
<rect x="324" y="15" width="90" height="25" fill="#FD6A0D"/>
<rect x="504" y="15" width="90" height="25" fill="#AF1B43"/>
<rect x="684" y="15" width="90" height="25" fill="#532046"/>
<path d="M144 50.5V15" stroke="black" stroke-width="2"/>
<path d="M504 50.5V15" stroke="black" stroke-width="2"/>
<path d="M234 50.5V15" stroke="black" stroke-width="2"/>
<path d="M594 50.5V15" stroke="black" stroke-width="2"/>
<path d="M324 50.5V15" stroke="black" stroke-width="2"/>
<path d="M684.137 50.5V15" stroke="black" stroke-width="2"/>
<path d="M665.978 75H654.506C654.522 73.608 654.858 72.392 655.514 71.352C656.17 70.312 657.066 69.408 658.202 68.64C658.746 68.24 659.314 67.856 659.906 67.488C660.498 67.104 661.042 66.696 661.538 66.264C662.034 65.832 662.442 65.368 662.762 64.872C663.082 64.36 663.25 63.776 663.266 63.12C663.266 62.816 663.226 62.496 663.146 62.16C663.082 61.808 662.946 61.488 662.738 61.2C662.53 60.896 662.242 60.648 661.874 60.456C661.506 60.248 661.026 60.144 660.434 60.144C659.89 60.144 659.434 60.256 659.066 60.48C658.714 60.688 658.426 60.984 658.202 61.368C657.994 61.736 657.834 62.176 657.722 62.688C657.626 63.2 657.57 63.752 657.554 64.344H654.818C654.818 63.416 654.938 62.56 655.178 61.776C655.434 60.976 655.81 60.288 656.306 59.712C656.802 59.136 657.402 58.688 658.106 58.368C658.826 58.032 659.658 57.864 660.602 57.864C661.626 57.864 662.482 58.032 663.17 58.368C663.858 58.704 664.41 59.128 664.826 59.64C665.258 60.152 665.562 60.712 665.738 61.32C665.914 61.912 666.002 62.48 666.002 63.024C666.002 63.696 665.898 64.304 665.69 64.848C665.482 65.392 665.202 65.896 664.85 66.36C664.498 66.808 664.098 67.224 663.65 67.608C663.202 67.992 662.738 68.352 662.258 68.688C661.778 69.024 661.298 69.344 660.818 69.648C660.338 69.952 659.89 70.256 659.474 70.56C659.074 70.864 658.722 71.184 658.418 71.52C658.114 71.84 657.906 72.184 657.794 72.552H665.978V75ZM668.562 71.76H671.898V75C671.882 75.992 671.578 76.824 670.986 77.496C670.394 78.168 669.618 78.6 668.658 78.792V77.328C669.186 77.2 669.578 76.904 669.834 76.44C670.106 75.992 670.234 75.512 670.218 75H668.562V71.76ZM680.258 57.864C681.458 57.864 682.434 58.144 683.186 58.704C683.954 59.248 684.546 59.952 684.962 60.816C685.394 61.664 685.682 62.6 685.826 63.624C685.986 64.648 686.066 65.64 686.066 66.6C686.066 67.56 685.986 68.552 685.826 69.576C685.682 70.6 685.394 71.544 684.962 72.408C684.546 73.256 683.954 73.96 683.186 74.52C682.434 75.064 681.458 75.336 680.258 75.336C679.058 75.336 678.074 75.064 677.306 74.52C676.554 73.96 675.962 73.256 675.53 72.408C675.114 71.544 674.826 70.6 674.666 69.576C674.522 68.552 674.45 67.56 674.45 66.6C674.45 65.64 674.522 64.648 674.666 63.624C674.826 62.6 675.114 61.664 675.53 60.816C675.962 59.952 676.554 59.248 677.306 58.704C678.074 58.144 679.058 57.864 680.258 57.864ZM680.258 73.056C680.85 73.056 681.346 72.888 681.746 72.552C682.146 72.2 682.458 71.736 682.682 71.16C682.922 70.568 683.09 69.88 683.186 69.096C683.282 68.312 683.33 67.48 683.33 66.6C683.33 65.72 683.282 64.896 683.186 64.128C683.09 63.344 682.922 62.656 682.682 62.064C682.458 61.472 682.146 61.008 681.746 60.672C681.346 60.32 680.85 60.144 680.258 60.144C679.65 60.144 679.146 60.32 678.746 60.672C678.362 61.008 678.05 61.472 677.81 62.064C677.586 62.656 677.426 63.344 677.33 64.128C677.234 64.896 677.186 65.72 677.186 66.6C677.186 67.48 677.234 68.312 677.33 69.096C677.426 69.88 677.586 70.568 677.81 71.16C678.05 71.736 678.362 72.2 678.746 72.552C679.146 72.888 679.65 73.056 680.258 73.056ZM693.594 57.864C694.794 57.864 695.77 58.144 696.522 58.704C697.29 59.248 697.882 59.952 698.298 60.816C698.73 61.664 699.018 62.6 699.162 63.624C699.322 64.648 699.402 65.64 699.402 66.6C699.402 67.56 699.322 68.552 699.162 69.576C699.018 70.6 698.73 71.544 698.298 72.408C697.882 73.256 697.29 73.96 696.522 74.52C695.77 75.064 694.794 75.336 693.594 75.336C692.394 75.336 691.41 75.064 690.642 74.52C689.89 73.96 689.298 73.256 688.866 72.408C688.45 71.544 688.162 70.6 688.002 69.576C687.858 68.552 687.786 67.56 687.786 66.6C687.786 65.64 687.858 64.648 688.002 63.624C688.162 62.6 688.45 61.664 688.866 60.816C689.298 59.952 689.89 59.248 690.642 58.704C691.41 58.144 692.394 57.864 693.594 57.864ZM693.594 73.056C694.186 73.056 694.682 72.888 695.082 72.552C695.482 72.2 695.794 71.736 696.018 71.16C696.258 70.568 696.426 69.88 696.522 69.096C696.618 68.312 696.666 67.48 696.666 66.6C696.666 65.72 696.618 64.896 696.522 64.128C696.426 63.344 696.258 62.656 696.018 62.064C695.794 61.472 695.482 61.008 695.082 60.672C694.682 60.32 694.186 60.144 693.594 60.144C692.986 60.144 692.482 60.32 692.082 60.672C691.698 61.008 691.386 61.472 691.146 62.064C690.922 62.656 690.762 63.344 690.666 64.128C690.57 64.896 690.522 65.72 690.522 66.6C690.522 67.48 690.57 68.312 690.666 69.096C690.762 69.88 690.922 70.568 691.146 71.16C691.386 71.736 691.698 72.2 692.082 72.552C692.482 72.888 692.986 73.056 693.594 73.056ZM706.93 57.864C708.13 57.864 709.106 58.144 709.858 58.704C710.626 59.248 711.218 59.952 711.634 60.816C712.066 61.664 712.354 62.6 712.498 63.624C712.658 64.648 712.738 65.64 712.738 66.6C712.738 67.56 712.658 68.552 712.498 69.576C712.354 70.6 712.066 71.544 711.634 72.408C711.218 73.256 710.626 73.96 709.858 74.52C709.106 75.064 708.13 75.336 706.93 75.336C705.73 75.336 704.746 75.064 703.978 74.52C703.226 73.96 702.634 73.256 702.202 72.408C701.786 71.544 701.498 70.6 701.338 69.576C701.194 68.552 701.122 67.56 701.122 66.6C701.122 65.64 701.194 64.648 701.338 63.624C701.498 62.6 701.786 61.664 702.202 60.816C702.634 59.952 703.226 59.248 703.978 58.704C704.746 58.144 705.73 57.864 706.93 57.864ZM706.93 73.056C707.522 73.056 708.018 72.888 708.418 72.552C708.818 72.2 709.13 71.736 709.354 71.16C709.594 70.568 709.762 69.88 709.858 69.096C709.954 68.312 710.002 67.48 710.002 66.6C710.002 65.72 709.954 64.896 709.858 64.128C709.762 63.344 709.594 62.656 709.354 62.064C709.13 61.472 708.818 61.008 708.418 60.672C708.018 60.32 707.522 60.144 706.93 60.144C706.322 60.144 705.818 60.32 705.418 60.672C705.034 61.008 704.722 61.472 704.482 62.064C704.258 62.656 704.098 63.344 704.002 64.128C703.906 64.896 703.858 65.72 703.858 66.6C703.858 67.48 703.906 68.312 704.002 69.096C704.098 69.88 704.258 70.568 704.482 71.16C704.722 71.736 705.034 72.2 705.418 72.552C705.818 72.888 706.322 73.056 706.93 73.056Z" fill="black"/>
<path d="M131.518 60.984C132.094 60.984 132.654 60.936 133.198 60.84C133.742 60.744 134.23 60.584 134.662 60.36C135.11 60.136 135.486 59.848 135.79 59.496C136.11 59.144 136.318 58.712 136.414 58.2H138.646V75H135.646V63.144H131.518V60.984ZM150.254 57.864C151.454 57.864 152.43 58.144 153.182 58.704C153.95 59.248 154.542 59.952 154.958 60.816C155.39 61.664 155.678 62.6 155.822 63.624C155.982 64.648 156.062 65.64 156.062 66.6C156.062 67.56 155.982 68.552 155.822 69.576C155.678 70.6 155.39 71.544 154.958 72.408C154.542 73.256 153.95 73.96 153.182 74.52C152.43 75.064 151.454 75.336 150.254 75.336C149.054 75.336 148.07 75.064 147.302 74.52C146.55 73.96 145.958 73.256 145.526 72.408C145.11 71.544 144.822 70.6 144.662 69.576C144.518 68.552 144.446 67.56 144.446 66.6C144.446 65.64 144.518 64.648 144.662 63.624C144.822 62.6 145.11 61.664 145.526 60.816C145.958 59.952 146.55 59.248 147.302 58.704C148.07 58.144 149.054 57.864 150.254 57.864ZM150.254 73.056C150.846 73.056 151.342 72.888 151.742 72.552C152.142 72.2 152.454 71.736 152.678 71.16C152.918 70.568 153.086 69.88 153.182 69.096C153.278 68.312 153.326 67.48 153.326 66.6C153.326 65.72 153.278 64.896 153.182 64.128C153.086 63.344 152.918 62.656 152.678 62.064C152.454 61.472 152.142 61.008 151.742 60.672C151.342 60.32 150.846 60.144 150.254 60.144C149.646 60.144 149.142 60.32 148.742 60.672C148.358 61.008 148.046 61.472 147.806 62.064C147.582 62.656 147.422 63.344 147.326 64.128C147.23 64.896 147.182 65.72 147.182 66.6C147.182 67.48 147.23 68.312 147.326 69.096C147.422 69.88 147.582 70.568 147.806 71.16C148.046 71.736 148.358 72.2 148.742 72.552C149.142 72.888 149.646 73.056 150.254 73.056Z" fill="black"/>
<path d="M414 50.5V15" stroke="black" stroke-width="2"/>
<path d="M722.824 65.04H727.72C728.44 65.04 729.04 64.84 729.52 64.44C730 64.024 730.24 63.432 730.24 62.664C730.24 61.8 730.024 61.192 729.592 60.84C729.16 60.488 728.536 60.312 727.72 60.312H722.824V65.04ZM719.824 57.864H728.152C729.688 57.864 730.92 58.216 731.848 58.92C732.776 59.624 733.24 60.688 733.24 62.112C733.24 62.976 733.024 63.72 732.592 64.344C732.176 64.952 731.576 65.424 730.792 65.76V65.808C731.848 66.032 732.648 66.536 733.192 67.32C733.736 68.088 734.008 69.056 734.008 70.224C734.008 70.896 733.888 71.528 733.648 72.12C733.408 72.696 733.032 73.2 732.52 73.632C732.008 74.048 731.352 74.384 730.552 74.64C729.752 74.88 728.8 75 727.696 75H719.824V57.864ZM722.824 72.552H728.128C729.04 72.552 729.744 72.32 730.24 71.856C730.752 71.376 731.008 70.704 731.008 69.84C731.008 68.992 730.752 68.344 730.24 67.896C729.744 67.432 729.04 67.2 728.128 67.2H722.824V72.552ZM746.754 75H744.066V73.272H744.018C743.682 73.896 743.178 74.4 742.506 74.784C741.85 75.152 741.178 75.336 740.49 75.336C738.858 75.336 737.674 74.936 736.938 74.136C736.218 73.32 735.858 72.096 735.858 70.464V62.592H738.594V70.2C738.594 71.288 738.802 72.056 739.218 72.504C739.634 72.952 740.218 73.176 740.97 73.176C741.546 73.176 742.026 73.088 742.41 72.912C742.794 72.736 743.106 72.504 743.346 72.216C743.586 71.912 743.754 71.552 743.85 71.136C743.962 70.72 744.018 70.272 744.018 69.792V62.592H746.754V75ZM749.232 57.864H751.968V60.456H749.232V57.864ZM749.232 62.592H751.968V75H749.232V62.592ZM754.541 57.864H757.277V75H754.541V57.864ZM771.466 75H768.874V73.32H768.826C768.458 74.04 767.922 74.56 767.218 74.88C766.514 75.184 765.77 75.336 764.986 75.336C764.01 75.336 763.154 75.168 762.418 74.832C761.698 74.48 761.098 74.008 760.618 73.416C760.138 72.824 759.778 72.128 759.538 71.328C759.298 70.512 759.178 69.64 759.178 68.712C759.178 67.592 759.33 66.624 759.634 65.808C759.938 64.992 760.338 64.32 760.834 63.792C761.346 63.264 761.922 62.88 762.562 62.64C763.218 62.384 763.882 62.256 764.554 62.256C764.938 62.256 765.33 62.296 765.73 62.376C766.13 62.44 766.514 62.552 766.882 62.712C767.25 62.872 767.586 63.08 767.89 63.336C768.21 63.576 768.474 63.864 768.682 64.2H768.73V57.864H771.466V75ZM761.914 68.928C761.914 69.456 761.978 69.976 762.106 70.488C762.25 71 762.458 71.456 762.73 71.856C763.018 72.256 763.378 72.576 763.81 72.816C764.242 73.056 764.754 73.176 765.346 73.176C765.954 73.176 766.474 73.048 766.906 72.792C767.354 72.536 767.714 72.2 767.986 71.784C768.274 71.368 768.482 70.904 768.61 70.392C768.754 69.864 768.826 69.328 768.826 68.784C768.826 67.408 768.514 66.336 767.89 65.568C767.282 64.8 766.45 64.416 765.394 64.416C764.754 64.416 764.21 64.552 763.762 64.824C763.33 65.08 762.97 65.424 762.682 65.856C762.41 66.272 762.21 66.752 762.082 67.296C761.97 67.824 761.914 68.368 761.914 68.928ZM774.042 57.864H776.778V60.456H774.042V57.864ZM774.042 62.592H776.778V75H774.042V62.592ZM779.279 62.592H781.871V64.416L781.919 64.464C782.335 63.776 782.879 63.24 783.551 62.856C784.223 62.456 784.967 62.256 785.783 62.256C787.143 62.256 788.215 62.608 788.999 63.312C789.783 64.016 790.175 65.072 790.175 66.48V75H787.439V67.2C787.407 66.224 787.199 65.52 786.815 65.088C786.431 64.64 785.831 64.416 785.015 64.416C784.551 64.416 784.135 64.504 783.767 64.68C783.399 64.84 783.087 65.072 782.831 65.376C782.575 65.664 782.375 66.008 782.231 66.408C782.087 66.808 782.015 67.232 782.015 67.68V75H779.279V62.592ZM804.052 74.352C804.052 76.224 803.524 77.616 802.468 78.528C801.428 79.456 799.924 79.92 797.956 79.92C797.332 79.92 796.7 79.856 796.06 79.728C795.436 79.6 794.86 79.384 794.332 79.08C793.82 78.776 793.388 78.376 793.036 77.88C792.684 77.384 792.476 76.776 792.412 76.056H795.148C795.228 76.44 795.364 76.752 795.556 76.992C795.748 77.232 795.972 77.416 796.228 77.544C796.5 77.688 796.796 77.776 797.116 77.808C797.436 77.856 797.772 77.88 798.124 77.88C799.228 77.88 800.036 77.608 800.548 77.064C801.06 76.52 801.316 75.736 801.316 74.712V72.816H801.268C800.884 73.504 800.356 74.04 799.684 74.424C799.028 74.808 798.316 75 797.548 75C796.556 75 795.708 74.832 795.004 74.496C794.316 74.144 793.74 73.672 793.276 73.08C792.828 72.472 792.5 71.776 792.292 70.992C792.084 70.208 791.98 69.368 791.98 68.472C791.98 67.64 792.108 66.848 792.364 66.096C792.62 65.344 792.988 64.688 793.468 64.128C793.948 63.552 794.532 63.096 795.22 62.76C795.924 62.424 796.716 62.256 797.596 62.256C798.38 62.256 799.1 62.424 799.756 62.76C800.412 63.08 800.916 63.592 801.268 64.296H801.316V62.592H804.052V74.352ZM797.98 72.84C798.588 72.84 799.1 72.72 799.516 72.48C799.948 72.224 800.292 71.896 800.548 71.496C800.82 71.08 801.012 70.616 801.124 70.104C801.252 69.576 801.316 69.048 801.316 68.52C801.316 67.992 801.252 67.48 801.124 66.984C800.996 66.488 800.796 66.048 800.524 65.664C800.268 65.28 799.924 64.976 799.492 64.752C799.076 64.528 798.572 64.416 797.98 64.416C797.372 64.416 796.86 64.544 796.444 64.8C796.028 65.056 795.692 65.392 795.436 65.808C795.18 66.208 794.996 66.672 794.884 67.2C794.772 67.712 794.716 68.224 794.716 68.736C794.716 69.248 794.78 69.752 794.908 70.248C795.036 70.728 795.228 71.16 795.484 71.544C795.756 71.928 796.092 72.24 796.492 72.48C796.908 72.72 797.404 72.84 797.98 72.84ZM808.391 71.016C808.471 71.816 808.775 72.376 809.303 72.696C809.831 73.016 810.463 73.176 811.199 73.176C811.455 73.176 811.743 73.16 812.063 73.128C812.399 73.08 812.711 73 812.999 72.888C813.287 72.776 813.519 72.616 813.695 72.408C813.887 72.184 813.975 71.896 813.959 71.544C813.943 71.192 813.815 70.904 813.575 70.68C813.335 70.456 813.023 70.28 812.639 70.152C812.271 70.008 811.847 69.888 811.367 69.792C810.887 69.696 810.399 69.592 809.903 69.48C809.391 69.368 808.895 69.232 808.415 69.072C807.951 68.912 807.527 68.696 807.143 68.424C806.775 68.152 806.479 67.808 806.255 67.392C806.031 66.96 805.919 66.432 805.919 65.808C805.919 65.136 806.079 64.576 806.399 64.128C806.735 63.664 807.151 63.296 807.647 63.024C808.159 62.736 808.719 62.536 809.327 62.424C809.951 62.312 810.543 62.256 811.103 62.256C811.743 62.256 812.351 62.328 812.927 62.472C813.519 62.6 814.047 62.816 814.511 63.12C814.991 63.424 815.383 63.824 815.687 64.32C816.007 64.8 816.207 65.384 816.287 66.072H813.431C813.303 65.416 812.999 64.976 812.519 64.752C812.055 64.528 811.519 64.416 810.911 64.416C810.719 64.416 810.487 64.432 810.215 64.464C809.959 64.496 809.711 64.56 809.471 64.656C809.247 64.736 809.055 64.864 808.895 65.04C808.735 65.2 808.655 65.416 808.655 65.688C808.655 66.024 808.767 66.296 808.991 66.504C809.231 66.712 809.535 66.888 809.903 67.032C810.287 67.16 810.719 67.272 811.199 67.368C811.679 67.464 812.175 67.568 812.687 67.68C813.183 67.792 813.671 67.928 814.151 68.088C814.631 68.248 815.055 68.464 815.423 68.736C815.807 69.008 816.111 69.352 816.335 69.768C816.575 70.184 816.695 70.696 816.695 71.304C816.695 72.04 816.527 72.664 816.191 73.176C815.855 73.688 815.415 74.104 814.871 74.424C814.343 74.744 813.751 74.976 813.095 75.12C812.439 75.264 811.791 75.336 811.151 75.336C810.367 75.336 809.639 75.248 808.967 75.072C808.311 74.896 807.735 74.632 807.239 74.28C806.759 73.912 806.375 73.464 806.087 72.936C805.815 72.392 805.671 71.752 805.655 71.016H808.391Z" fill="#B6B6B6"/>
</g>
<defs>
<clipPath id="clip0_5_193">
<rect width="828" height="115" fill="white"/>
</clipPath>
</defs>
</svg>
