<svg width="828" height="115" viewBox="0 0 828 115" fill="none" xmlns="http://www.w3.org/2000/svg">
<rect x="54" y="15" width="90" height="25" fill="#DDF1FE"/>
<rect x="234" y="15" width="90" height="25" fill="#9EC8ED"/>
<rect x="414" y="15" width="90" height="25" fill="#5F9FDD"/>
<rect x="594" y="15" width="90" height="25" fill="#2076CC"/>
<rect x="144" y="15" width="90" height="25" fill="#BDDDF6"/>
<rect x="324" y="15" width="90" height="25" fill="#7EB4E5"/>
<rect x="504" y="15" width="90" height="25" fill="#3F8BD5"/>
<rect x="684" y="15" width="90" height="25" fill="#0062C4"/>
<path d="M144 50.5V15" stroke="black" stroke-width="2"/>
<path d="M138.104 60.984C138.68 60.984 139.24 60.936 139.784 60.84C140.328 60.744 140.816 60.584 141.248 60.36C141.696 60.136 142.072 59.848 142.376 59.496C142.696 59.144 142.904 58.712 143 58.2H145.232V75H142.232V63.144H138.104V60.984Z" fill="black"/>
<path d="M504 50.5V15" stroke="black" stroke-width="2"/>
<path d="M502.572 75H491.1C491.116 73.608 491.452 72.392 492.108 71.352C492.764 70.312 493.66 69.408 494.796 68.64C495.34 68.24 495.908 67.856 496.5 67.488C497.092 67.104 497.636 66.696 498.132 66.264C498.628 65.832 499.036 65.368 499.356 64.872C499.676 64.36 499.844 63.776 499.86 63.12C499.86 62.816 499.82 62.496 499.74 62.16C499.676 61.808 499.54 61.488 499.332 61.2C499.124 60.896 498.836 60.648 498.468 60.456C498.1 60.248 497.62 60.144 497.028 60.144C496.484 60.144 496.028 60.256 495.66 60.48C495.308 60.688 495.02 60.984 494.796 61.368C494.588 61.736 494.428 62.176 494.316 62.688C494.22 63.2 494.164 63.752 494.148 64.344H491.412C491.412 63.416 491.532 62.56 491.772 61.776C492.028 60.976 492.404 60.288 492.9 59.712C493.396 59.136 493.996 58.688 494.7 58.368C495.42 58.032 496.252 57.864 497.196 57.864C498.22 57.864 499.076 58.032 499.764 58.368C500.452 58.704 501.004 59.128 501.42 59.64C501.852 60.152 502.156 60.712 502.332 61.32C502.508 61.912 502.596 62.48 502.596 63.024C502.596 63.696 502.492 64.304 502.284 64.848C502.076 65.392 501.796 65.896 501.444 66.36C501.092 66.808 500.692 67.224 500.244 67.608C499.796 67.992 499.332 68.352 498.852 68.688C498.372 69.024 497.892 69.344 497.412 69.648C496.932 69.952 496.484 70.256 496.068 70.56C495.668 70.864 495.316 71.184 495.012 71.52C494.708 71.84 494.5 72.184 494.388 72.552H502.572V75ZM508.972 65.16C509.42 65.176 509.868 65.144 510.316 65.064C510.764 64.984 511.164 64.848 511.516 64.656C511.868 64.448 512.148 64.168 512.356 63.816C512.58 63.464 512.692 63.032 512.692 62.52C512.692 61.8 512.444 61.224 511.948 60.792C511.468 60.36 510.844 60.144 510.076 60.144C509.596 60.144 509.18 60.24 508.828 60.432C508.476 60.624 508.18 60.888 507.94 61.224C507.716 61.544 507.548 61.912 507.436 62.328C507.324 62.728 507.276 63.144 507.292 63.576H504.556C504.588 62.76 504.74 62.008 505.012 61.32C505.284 60.616 505.652 60.008 506.116 59.496C506.596 58.984 507.172 58.584 507.844 58.296C508.516 58.008 509.276 57.864 510.124 57.864C510.78 57.864 511.42 57.96 512.044 58.152C512.684 58.344 513.252 58.624 513.748 58.992C514.26 59.36 514.668 59.832 514.972 60.408C515.276 60.968 515.428 61.616 515.428 62.352C515.428 63.2 515.236 63.944 514.852 64.584C514.468 65.208 513.868 65.664 513.052 65.952V66C514.012 66.192 514.756 66.672 515.284 67.44C515.828 68.192 516.1 69.112 516.1 70.2C516.1 71 515.94 71.72 515.62 72.36C515.3 72.984 514.868 73.52 514.324 73.968C513.78 74.4 513.148 74.736 512.428 74.976C511.708 75.216 510.948 75.336 510.148 75.336C509.172 75.336 508.316 75.2 507.58 74.928C506.86 74.64 506.252 74.24 505.756 73.728C505.276 73.216 504.908 72.6 504.652 71.88C504.396 71.16 504.26 70.36 504.244 69.48H506.98C506.948 70.504 507.196 71.36 507.724 72.048C508.268 72.72 509.076 73.056 510.148 73.056C511.06 73.056 511.82 72.8 512.428 72.288C513.052 71.76 513.364 71.016 513.364 70.056C513.364 69.4 513.236 68.88 512.98 68.496C512.724 68.112 512.388 67.824 511.972 67.632C511.556 67.424 511.084 67.296 510.556 67.248C510.044 67.2 509.516 67.184 508.972 67.2V65.16Z" fill="black"/>
<path d="M234 50.5V15" stroke="black" stroke-width="2"/>
<path d="M229.52 68.856H234.608V61.464H234.56L229.52 68.856ZM239.36 71.016H237.2V75H234.608V71.016H227.408V68.304L234.608 58.2H237.2V68.856H239.36V71.016Z" fill="black"/>
<path d="M594 50.5V15" stroke="black" stroke-width="2"/>
<path d="M585.636 65.16C586.084 65.176 586.532 65.144 586.98 65.064C587.428 64.984 587.828 64.848 588.18 64.656C588.532 64.448 588.812 64.168 589.02 63.816C589.244 63.464 589.356 63.032 589.356 62.52C589.356 61.8 589.108 61.224 588.612 60.792C588.132 60.36 587.508 60.144 586.74 60.144C586.26 60.144 585.844 60.24 585.492 60.432C585.14 60.624 584.844 60.888 584.604 61.224C584.38 61.544 584.212 61.912 584.1 62.328C583.988 62.728 583.94 63.144 583.956 63.576H581.22C581.252 62.76 581.404 62.008 581.676 61.32C581.948 60.616 582.316 60.008 582.78 59.496C583.26 58.984 583.836 58.584 584.508 58.296C585.18 58.008 585.94 57.864 586.788 57.864C587.444 57.864 588.084 57.96 588.708 58.152C589.348 58.344 589.916 58.624 590.412 58.992C590.924 59.36 591.332 59.832 591.636 60.408C591.94 60.968 592.092 61.616 592.092 62.352C592.092 63.2 591.9 63.944 591.516 64.584C591.132 65.208 590.532 65.664 589.716 65.952V66C590.676 66.192 591.42 66.672 591.948 67.44C592.492 68.192 592.764 69.112 592.764 70.2C592.764 71 592.604 71.72 592.284 72.36C591.964 72.984 591.532 73.52 590.988 73.968C590.444 74.4 589.812 74.736 589.092 74.976C588.372 75.216 587.612 75.336 586.812 75.336C585.836 75.336 584.98 75.2 584.244 74.928C583.524 74.64 582.916 74.24 582.42 73.728C581.94 73.216 581.572 72.6 581.316 71.88C581.06 71.16 580.924 70.36 580.908 69.48H583.644C583.612 70.504 583.86 71.36 584.388 72.048C584.932 72.72 585.74 73.056 586.812 73.056C587.724 73.056 588.484 72.8 589.092 72.288C589.716 71.76 590.028 71.016 590.028 70.056C590.028 69.4 589.9 68.88 589.644 68.496C589.388 68.112 589.052 67.824 588.636 67.632C588.22 67.424 587.748 67.296 587.22 67.248C586.708 67.2 586.18 67.184 585.636 67.2V65.16ZM598.972 65.16C599.42 65.176 599.868 65.144 600.316 65.064C600.764 64.984 601.164 64.848 601.516 64.656C601.868 64.448 602.148 64.168 602.356 63.816C602.58 63.464 602.692 63.032 602.692 62.52C602.692 61.8 602.444 61.224 601.948 60.792C601.468 60.36 600.844 60.144 600.076 60.144C599.596 60.144 599.18 60.24 598.828 60.432C598.476 60.624 598.18 60.888 597.94 61.224C597.716 61.544 597.548 61.912 597.436 62.328C597.324 62.728 597.276 63.144 597.292 63.576H594.556C594.588 62.76 594.74 62.008 595.012 61.32C595.284 60.616 595.652 60.008 596.116 59.496C596.596 58.984 597.172 58.584 597.844 58.296C598.516 58.008 599.276 57.864 600.124 57.864C600.78 57.864 601.42 57.96 602.044 58.152C602.684 58.344 603.252 58.624 603.748 58.992C604.26 59.36 604.668 59.832 604.972 60.408C605.276 60.968 605.428 61.616 605.428 62.352C605.428 63.2 605.236 63.944 604.852 64.584C604.468 65.208 603.868 65.664 603.052 65.952V66C604.012 66.192 604.756 66.672 605.284 67.44C605.828 68.192 606.1 69.112 606.1 70.2C606.1 71 605.94 71.72 605.62 72.36C605.3 72.984 604.868 73.52 604.324 73.968C603.78 74.4 603.148 74.736 602.428 74.976C601.708 75.216 600.948 75.336 600.148 75.336C599.172 75.336 598.316 75.2 597.58 74.928C596.86 74.64 596.252 74.24 595.756 73.728C595.276 73.216 594.908 72.6 594.652 71.88C594.396 71.16 594.26 70.36 594.244 69.48H596.98C596.948 70.504 597.196 71.36 597.724 72.048C598.268 72.72 599.076 73.056 600.148 73.056C601.06 73.056 601.82 72.8 602.428 72.288C603.052 71.76 603.364 71.016 603.364 70.056C603.364 69.4 603.236 68.88 602.98 68.496C602.724 68.112 602.388 67.824 601.972 67.632C601.556 67.424 601.084 67.296 600.556 67.248C600.044 67.2 599.516 67.184 598.972 67.2V65.16Z" fill="black"/>
<path d="M324 50.5V15" stroke="black" stroke-width="2"/>
<path d="M323.504 60.024C322.768 60.024 322.144 60.248 321.632 60.696C321.12 61.128 320.864 61.76 320.864 62.592C320.864 63.392 321.112 64.008 321.608 64.44C322.104 64.856 322.736 65.064 323.504 65.064C324.272 65.064 324.904 64.856 325.4 64.44C325.896 64.008 326.144 63.392 326.144 62.592C326.144 61.76 325.888 61.128 325.376 60.696C324.864 60.248 324.24 60.024 323.504 60.024ZM323.504 75.336C322.656 75.336 321.864 75.216 321.128 74.976C320.408 74.736 319.784 74.392 319.256 73.944C318.728 73.48 318.312 72.92 318.008 72.264C317.72 71.608 317.576 70.872 317.576 70.056C317.576 69 317.848 68.112 318.392 67.392C318.952 66.672 319.704 66.192 320.648 65.952V65.904C319.88 65.616 319.288 65.176 318.872 64.584C318.472 63.976 318.272 63.264 318.272 62.448C318.272 61.008 318.72 59.888 319.616 59.088C320.528 58.272 321.824 57.864 323.504 57.864C325.184 57.864 326.472 58.272 327.368 59.088C328.28 59.888 328.736 61.008 328.736 62.448C328.736 63.264 328.528 63.976 328.112 64.584C327.712 65.176 327.128 65.616 326.36 65.904V65.952C327.304 66.192 328.048 66.672 328.592 67.392C329.152 68.112 329.432 69 329.432 70.056C329.432 70.872 329.28 71.608 328.976 72.264C328.688 72.92 328.28 73.48 327.752 73.944C327.224 74.392 326.592 74.736 325.856 74.976C325.136 75.216 324.352 75.336 323.504 75.336ZM323.504 73.176C324.416 73.176 325.176 72.904 325.784 72.36C326.392 71.816 326.696 71.048 326.696 70.056C326.696 69.128 326.392 68.408 325.784 67.896C325.176 67.368 324.416 67.104 323.504 67.104C322.592 67.104 321.832 67.368 321.224 67.896C320.616 68.408 320.312 69.128 320.312 70.056C320.312 71.048 320.616 71.816 321.224 72.36C321.832 72.904 322.592 73.176 323.504 73.176Z" fill="black"/>
<path d="M684 50.5V15" stroke="black" stroke-width="2"/>
<path d="M672.852 68.856H677.94V61.464H677.892L672.852 68.856ZM682.692 71.016H680.532V75H677.94V71.016H670.74V68.304L677.94 58.2H680.532V68.856H682.692V71.016ZM686.452 58.2H695.14V60.648H688.492L687.628 64.92L687.676 64.968C688.044 64.552 688.508 64.24 689.068 64.032C689.644 63.808 690.212 63.696 690.772 63.696C691.604 63.696 692.348 63.84 693.004 64.128C693.66 64.4 694.212 64.792 694.66 65.304C695.108 65.8 695.444 66.392 695.668 67.08C695.908 67.768 696.028 68.512 696.028 69.312C696.028 69.984 695.916 70.68 695.692 71.4C695.484 72.104 695.14 72.752 694.66 73.344C694.196 73.92 693.596 74.4 692.86 74.784C692.124 75.152 691.244 75.336 690.22 75.336C689.404 75.336 688.644 75.224 687.94 75C687.252 74.792 686.644 74.472 686.116 74.04C685.588 73.608 685.164 73.08 684.844 72.456C684.54 71.816 684.372 71.072 684.34 70.224H687.076C687.156 71.136 687.468 71.84 688.012 72.336C688.556 72.816 689.276 73.056 690.172 73.056C690.748 73.056 691.236 72.96 691.636 72.768C692.036 72.576 692.356 72.312 692.596 71.976C692.852 71.64 693.028 71.248 693.124 70.8C693.236 70.352 693.292 69.872 693.292 69.36C693.292 68.896 693.228 68.456 693.1 68.04C692.972 67.608 692.78 67.232 692.524 66.912C692.268 66.592 691.932 66.336 691.516 66.144C691.116 65.952 690.644 65.856 690.1 65.856C689.524 65.856 688.98 65.968 688.468 66.192C687.972 66.4 687.612 66.8 687.388 67.392H684.652L686.452 58.2Z" fill="black"/>
<path d="M414 50.5V15" stroke="black" stroke-width="2"/>
<path d="M401.436 60.984C402.012 60.984 402.572 60.936 403.116 60.84C403.66 60.744 404.148 60.584 404.58 60.36C405.028 60.136 405.404 59.848 405.708 59.496C406.028 59.144 406.236 58.712 406.332 58.2H408.564V75H405.564V63.144H401.436V60.984ZM416.452 58.2H425.14V60.648H418.492L417.628 64.92L417.676 64.968C418.044 64.552 418.508 64.24 419.068 64.032C419.644 63.808 420.212 63.696 420.772 63.696C421.604 63.696 422.348 63.84 423.004 64.128C423.66 64.4 424.212 64.792 424.66 65.304C425.108 65.8 425.444 66.392 425.668 67.08C425.908 67.768 426.028 68.512 426.028 69.312C426.028 69.984 425.916 70.68 425.692 71.4C425.484 72.104 425.14 72.752 424.66 73.344C424.196 73.92 423.596 74.4 422.86 74.784C422.124 75.152 421.244 75.336 420.22 75.336C419.404 75.336 418.644 75.224 417.94 75C417.252 74.792 416.644 74.472 416.116 74.04C415.588 73.608 415.164 73.08 414.844 72.456C414.54 71.816 414.372 71.072 414.34 70.224H417.076C417.156 71.136 417.468 71.84 418.012 72.336C418.556 72.816 419.276 73.056 420.172 73.056C420.748 73.056 421.236 72.96 421.636 72.768C422.036 72.576 422.356 72.312 422.596 71.976C422.852 71.64 423.028 71.248 423.124 70.8C423.236 70.352 423.292 69.872 423.292 69.36C423.292 68.896 423.228 68.456 423.1 68.04C422.972 67.608 422.78 67.232 422.524 66.912C422.268 66.592 421.932 66.336 421.516 66.144C421.116 65.952 420.644 65.856 420.1 65.856C419.524 65.856 418.98 65.968 418.468 66.192C417.972 66.4 417.612 66.8 417.388 67.392H414.652L416.452 58.2Z" fill="black"/>
<path d="M697.656 71.76H700.992V75C700.976 75.992 700.672 76.824 700.08 77.496C699.488 78.168 698.712 78.6 697.752 78.792V77.328C698.28 77.2 698.672 76.904 698.928 76.44C699.2 75.992 699.328 75.512 699.312 75H697.656V71.76ZM708.872 57.864C710.072 57.864 711.048 58.144 711.8 58.704C712.568 59.248 713.16 59.952 713.576 60.816C714.008 61.664 714.296 62.6 714.44 63.624C714.6 64.648 714.68 65.64 714.68 66.6C714.68 67.56 714.6 68.552 714.44 69.576C714.296 70.6 714.008 71.544 713.576 72.408C713.16 73.256 712.568 73.96 711.8 74.52C711.048 75.064 710.072 75.336 708.872 75.336C707.672 75.336 706.688 75.064 705.92 74.52C705.168 73.96 704.576 73.256 704.144 72.408C703.728 71.544 703.44 70.6 703.28 69.576C703.136 68.552 703.064 67.56 703.064 66.6C703.064 65.64 703.136 64.648 703.28 63.624C703.44 62.6 703.728 61.664 704.144 60.816C704.576 59.952 705.168 59.248 705.92 58.704C706.688 58.144 707.672 57.864 708.872 57.864ZM708.872 73.056C709.464 73.056 709.96 72.888 710.36 72.552C710.76 72.2 711.072 71.736 711.296 71.16C711.536 70.568 711.704 69.88 711.8 69.096C711.896 68.312 711.944 67.48 711.944 66.6C711.944 65.72 711.896 64.896 711.8 64.128C711.704 63.344 711.536 62.656 711.296 62.064C711.072 61.472 710.76 61.008 710.36 60.672C709.96 60.32 709.464 60.144 708.872 60.144C708.264 60.144 707.76 60.32 707.36 60.672C706.976 61.008 706.664 61.472 706.424 62.064C706.2 62.656 706.04 63.344 705.944 64.128C705.848 64.896 705.8 65.72 705.8 66.6C705.8 67.48 705.848 68.312 705.944 69.096C706.04 69.88 706.2 70.568 706.424 71.16C706.664 71.736 706.976 72.2 707.36 72.552C707.76 72.888 708.264 73.056 708.872 73.056ZM721.728 57.864C722.928 57.864 723.904 58.144 724.656 58.704C725.424 59.248 726.016 59.952 726.432 60.816C726.864 61.664 727.152 62.6 727.296 63.624C727.456 64.648 727.536 65.64 727.536 66.6C727.536 67.56 727.456 68.552 727.296 69.576C727.152 70.6 726.864 71.544 726.432 72.408C726.016 73.256 725.424 73.96 724.656 74.52C723.904 75.064 722.928 75.336 721.728 75.336C720.528 75.336 719.544 75.064 718.776 74.52C718.024 73.96 717.432 73.256 717 72.408C716.584 71.544 716.296 70.6 716.136 69.576C715.992 68.552 715.92 67.56 715.92 66.6C715.92 65.64 715.992 64.648 716.136 63.624C716.296 62.6 716.584 61.664 717 60.816C717.432 59.952 718.024 59.248 718.776 58.704C719.544 58.144 720.528 57.864 721.728 57.864ZM721.728 73.056C722.32 73.056 722.816 72.888 723.216 72.552C723.616 72.2 723.928 71.736 724.152 71.16C724.392 70.568 724.56 69.88 724.656 69.096C724.752 68.312 724.8 67.48 724.8 66.6C724.8 65.72 724.752 64.896 724.656 64.128C724.56 63.344 724.392 62.656 724.152 62.064C723.928 61.472 723.616 61.008 723.216 60.672C722.816 60.32 722.32 60.144 721.728 60.144C721.12 60.144 720.616 60.32 720.216 60.672C719.832 61.008 719.52 61.472 719.28 62.064C719.056 62.656 718.896 63.344 718.8 64.128C718.704 64.896 718.656 65.72 718.656 66.6C718.656 67.48 718.704 68.312 718.8 69.096C718.896 69.88 719.056 70.568 719.28 71.16C719.52 71.736 719.832 72.2 720.216 72.552C720.616 72.888 721.12 73.056 721.728 73.056ZM734.584 57.864C735.784 57.864 736.76 58.144 737.512 58.704C738.28 59.248 738.872 59.952 739.288 60.816C739.72 61.664 740.008 62.6 740.152 63.624C740.312 64.648 740.392 65.64 740.392 66.6C740.392 67.56 740.312 68.552 740.152 69.576C740.008 70.6 739.72 71.544 739.288 72.408C738.872 73.256 738.28 73.96 737.512 74.52C736.76 75.064 735.784 75.336 734.584 75.336C733.384 75.336 732.4 75.064 731.632 74.52C730.88 73.96 730.288 73.256 729.856 72.408C729.44 71.544 729.152 70.6 728.992 69.576C728.848 68.552 728.776 67.56 728.776 66.6C728.776 65.64 728.848 64.648 728.992 63.624C729.152 62.6 729.44 61.664 729.856 60.816C730.288 59.952 730.88 59.248 731.632 58.704C732.4 58.144 733.384 57.864 734.584 57.864ZM734.584 73.056C735.176 73.056 735.672 72.888 736.072 72.552C736.472 72.2 736.784 71.736 737.008 71.16C737.248 70.568 737.416 69.88 737.512 69.096C737.608 68.312 737.656 67.48 737.656 66.6C737.656 65.72 737.608 64.896 737.512 64.128C737.416 63.344 737.248 62.656 737.008 62.064C736.784 61.472 736.472 61.008 736.072 60.672C735.672 60.32 735.176 60.144 734.584 60.144C733.976 60.144 733.472 60.32 733.072 60.672C732.688 61.008 732.376 61.472 732.136 62.064C731.912 62.656 731.752 63.344 731.656 64.128C731.56 64.896 731.512 65.72 731.512 66.6C731.512 67.48 731.56 68.312 731.656 69.096C731.752 69.88 731.912 70.568 732.136 71.16C732.376 71.736 732.688 72.2 733.072 72.552C733.472 72.888 733.976 73.056 734.584 73.056ZM748.791 57.864H756.351C757.567 57.864 758.559 58.04 759.327 58.392C760.095 58.744 760.687 59.184 761.103 59.712C761.519 60.24 761.799 60.816 761.943 61.44C762.103 62.064 762.183 62.64 762.183 63.168C762.183 63.696 762.103 64.272 761.943 64.896C761.799 65.504 761.519 66.072 761.103 66.6C760.687 67.128 760.095 67.568 759.327 67.92C758.559 68.256 757.567 68.424 756.351 68.424H751.791V75H748.791V57.864ZM751.791 65.976H756.183C756.519 65.976 756.863 65.928 757.215 65.832C757.567 65.736 757.887 65.584 758.175 65.376C758.479 65.152 758.719 64.864 758.895 64.512C759.087 64.144 759.183 63.688 759.183 63.144C759.183 62.584 759.103 62.12 758.943 61.752C758.783 61.384 758.567 61.096 758.295 60.888C758.023 60.664 757.711 60.512 757.359 60.432C757.007 60.352 756.631 60.312 756.231 60.312H751.791V65.976ZM772.455 67.704C772.423 67.272 772.327 66.856 772.167 66.456C772.023 66.056 771.815 65.712 771.543 65.424C771.287 65.12 770.967 64.88 770.583 64.704C770.215 64.512 769.799 64.416 769.335 64.416C768.855 64.416 768.415 64.504 768.015 64.68C767.631 64.84 767.295 65.072 767.007 65.376C766.735 65.664 766.511 66.008 766.335 66.408C766.175 66.808 766.087 67.24 766.071 67.704H772.455ZM766.071 69.504C766.071 69.984 766.135 70.448 766.263 70.896C766.407 71.344 766.615 71.736 766.887 72.072C767.159 72.408 767.503 72.68 767.919 72.888C768.335 73.08 768.831 73.176 769.407 73.176C770.207 73.176 770.847 73.008 771.327 72.672C771.823 72.32 772.191 71.8 772.431 71.112H775.023C774.879 71.784 774.631 72.384 774.279 72.912C773.927 73.44 773.503 73.888 773.007 74.256C772.511 74.608 771.951 74.872 771.327 75.048C770.719 75.24 770.079 75.336 769.407 75.336C768.431 75.336 767.567 75.176 766.815 74.856C766.063 74.536 765.423 74.088 764.895 73.512C764.383 72.936 763.991 72.248 763.719 71.448C763.463 70.648 763.335 69.768 763.335 68.808C763.335 67.928 763.471 67.096 763.743 66.312C764.031 65.512 764.431 64.816 764.943 64.224C765.471 63.616 766.103 63.136 766.839 62.784C767.575 62.432 768.407 62.256 769.335 62.256C770.311 62.256 771.183 62.464 771.951 62.88C772.735 63.28 773.383 63.816 773.895 64.488C774.407 65.16 774.775 65.936 774.999 66.816C775.239 67.68 775.303 68.576 775.191 69.504H766.071ZM782.479 75.336C781.487 75.336 780.599 75.176 779.815 74.856C779.047 74.52 778.391 74.064 777.847 73.488C777.319 72.912 776.911 72.224 776.623 71.424C776.351 70.624 776.215 69.744 776.215 68.784C776.215 67.84 776.351 66.968 776.623 66.168C776.911 65.368 777.319 64.68 777.847 64.104C778.391 63.528 779.047 63.08 779.815 62.76C780.599 62.424 781.487 62.256 782.479 62.256C783.471 62.256 784.351 62.424 785.119 62.76C785.903 63.08 786.559 63.528 787.087 64.104C787.631 64.68 788.039 65.368 788.311 66.168C788.599 66.968 788.743 67.84 788.743 68.784C788.743 69.744 788.599 70.624 788.311 71.424C788.039 72.224 787.631 72.912 787.087 73.488C786.559 74.064 785.903 74.52 785.119 74.856C784.351 75.176 783.471 75.336 782.479 75.336ZM782.479 73.176C783.087 73.176 783.615 73.048 784.063 72.792C784.511 72.536 784.879 72.2 785.167 71.784C785.455 71.368 785.663 70.904 785.791 70.392C785.935 69.864 786.007 69.328 786.007 68.784C786.007 68.256 785.935 67.728 785.791 67.2C785.663 66.672 785.455 66.208 785.167 65.808C784.879 65.392 784.511 65.056 784.063 64.8C783.615 64.544 783.087 64.416 782.479 64.416C781.871 64.416 781.343 64.544 780.895 64.8C780.447 65.056 780.079 65.392 779.791 65.808C779.503 66.208 779.287 66.672 779.143 67.2C779.015 67.728 778.951 68.256 778.951 68.784C778.951 69.328 779.015 69.864 779.143 70.392C779.287 70.904 779.503 71.368 779.791 71.784C780.079 72.2 780.447 72.536 780.895 72.792C781.343 73.048 781.871 73.176 782.479 73.176ZM790.61 62.592H793.202V64.272H793.25C793.634 63.552 794.17 63.04 794.858 62.736C795.546 62.416 796.29 62.256 797.09 62.256C798.066 62.256 798.914 62.432 799.634 62.784C800.37 63.12 800.978 63.592 801.458 64.2C801.938 64.792 802.298 65.488 802.538 66.288C802.778 67.088 802.898 67.944 802.898 68.856C802.898 69.688 802.786 70.496 802.562 71.28C802.354 72.064 802.026 72.76 801.578 73.368C801.146 73.96 800.594 74.44 799.922 74.808C799.25 75.16 798.458 75.336 797.546 75.336C797.146 75.336 796.746 75.296 796.346 75.216C795.946 75.152 795.562 75.04 795.194 74.88C794.826 74.72 794.482 74.52 794.162 74.28C793.858 74.024 793.602 73.728 793.394 73.392H793.346V79.584H790.61V62.592ZM800.162 68.808C800.162 68.248 800.09 67.704 799.946 67.176C799.802 66.648 799.586 66.184 799.298 65.784C799.01 65.368 798.65 65.04 798.218 64.8C797.786 64.544 797.29 64.416 796.73 64.416C795.578 64.416 794.706 64.816 794.114 65.616C793.538 66.416 793.25 67.48 793.25 68.808C793.25 69.432 793.322 70.016 793.466 70.56C793.626 71.088 793.858 71.544 794.162 71.928C794.466 72.312 794.826 72.616 795.242 72.84C795.674 73.064 796.17 73.176 796.73 73.176C797.354 73.176 797.882 73.048 798.314 72.792C798.746 72.536 799.098 72.208 799.37 71.808C799.658 71.392 799.858 70.928 799.97 70.416C800.098 69.888 800.162 69.352 800.162 68.808ZM804.801 57.864H807.537V75H804.801V57.864ZM818.558 67.704C818.526 67.272 818.43 66.856 818.27 66.456C818.126 66.056 817.918 65.712 817.646 65.424C817.39 65.12 817.07 64.88 816.686 64.704C816.318 64.512 815.902 64.416 815.438 64.416C814.958 64.416 814.518 64.504 814.118 64.68C813.734 64.84 813.398 65.072 813.11 65.376C812.838 65.664 812.614 66.008 812.438 66.408C812.278 66.808 812.19 67.24 812.174 67.704H818.558ZM812.174 69.504C812.174 69.984 812.238 70.448 812.366 70.896C812.51 71.344 812.718 71.736 812.99 72.072C813.262 72.408 813.606 72.68 814.022 72.888C814.438 73.08 814.934 73.176 815.51 73.176C816.31 73.176 816.95 73.008 817.43 72.672C817.926 72.32 818.294 71.8 818.534 71.112H821.126C820.982 71.784 820.734 72.384 820.382 72.912C820.03 73.44 819.606 73.888 819.11 74.256C818.614 74.608 818.054 74.872 817.43 75.048C816.822 75.24 816.182 75.336 815.51 75.336C814.534 75.336 813.67 75.176 812.918 74.856C812.166 74.536 811.526 74.088 810.998 73.512C810.486 72.936 810.094 72.248 809.822 71.448C809.566 70.648 809.438 69.768 809.438 68.808C809.438 67.928 809.574 67.096 809.846 66.312C810.134 65.512 810.534 64.816 811.046 64.224C811.574 63.616 812.206 63.136 812.942 62.784C813.678 62.432 814.51 62.256 815.438 62.256C816.414 62.256 817.286 62.464 818.054 62.88C818.838 63.28 819.486 63.816 819.998 64.488C820.51 65.16 820.878 65.936 821.102 66.816C821.342 67.68 821.406 68.576 821.294 69.504H812.174ZM697.512 91.592H700.104V93.272H700.152C700.536 92.552 701.072 92.04 701.76 91.736C702.448 91.416 703.192 91.256 703.992 91.256C704.968 91.256 705.816 91.432 706.536 91.784C707.272 92.12 707.88 92.592 708.36 93.2C708.84 93.792 709.2 94.488 709.44 95.288C709.68 96.088 709.8 96.944 709.8 97.856C709.8 98.688 709.688 99.496 709.464 100.28C709.256 101.064 708.928 101.76 708.48 102.368C708.048 102.96 707.496 103.44 706.824 103.808C706.152 104.16 705.36 104.336 704.448 104.336C704.048 104.336 703.648 104.296 703.248 104.216C702.848 104.152 702.464 104.04 702.096 103.88C701.728 103.72 701.384 103.52 701.064 103.28C700.76 103.024 700.504 102.728 700.296 102.392H700.248V108.584H697.512V91.592ZM707.064 97.808C707.064 97.248 706.992 96.704 706.848 96.176C706.704 95.648 706.488 95.184 706.2 94.784C705.912 94.368 705.552 94.04 705.12 93.8C704.688 93.544 704.192 93.416 703.632 93.416C702.48 93.416 701.608 93.816 701.016 94.616C700.44 95.416 700.152 96.48 700.152 97.808C700.152 98.432 700.224 99.016 700.368 99.56C700.528 100.088 700.76 100.544 701.064 100.928C701.368 101.312 701.728 101.616 702.144 101.84C702.576 102.064 703.072 102.176 703.632 102.176C704.256 102.176 704.784 102.048 705.216 101.792C705.648 101.536 706 101.208 706.272 100.808C706.56 100.392 706.76 99.928 706.872 99.416C707 98.888 707.064 98.352 707.064 97.808ZM720.152 96.704C720.12 96.272 720.024 95.856 719.864 95.456C719.72 95.056 719.512 94.712 719.24 94.424C718.984 94.12 718.664 93.88 718.28 93.704C717.912 93.512 717.496 93.416 717.032 93.416C716.552 93.416 716.112 93.504 715.712 93.68C715.328 93.84 714.992 94.072 714.704 94.376C714.432 94.664 714.208 95.008 714.032 95.408C713.872 95.808 713.784 96.24 713.768 96.704H720.152ZM713.768 98.504C713.768 98.984 713.832 99.448 713.96 99.896C714.104 100.344 714.312 100.736 714.584 101.072C714.856 101.408 715.2 101.68 715.616 101.888C716.032 102.08 716.528 102.176 717.104 102.176C717.904 102.176 718.544 102.008 719.024 101.672C719.52 101.32 719.888 100.8 720.128 100.112H722.72C722.576 100.784 722.328 101.384 721.976 101.912C721.624 102.44 721.2 102.888 720.704 103.256C720.208 103.608 719.648 103.872 719.024 104.048C718.416 104.24 717.776 104.336 717.104 104.336C716.128 104.336 715.264 104.176 714.512 103.856C713.76 103.536 713.12 103.088 712.592 102.512C712.08 101.936 711.688 101.248 711.416 100.448C711.16 99.648 711.032 98.768 711.032 97.808C711.032 96.928 711.168 96.096 711.44 95.312C711.728 94.512 712.128 93.816 712.64 93.224C713.168 92.616 713.8 92.136 714.536 91.784C715.272 91.432 716.104 91.256 717.032 91.256C718.008 91.256 718.88 91.464 719.648 91.88C720.432 92.28 721.08 92.816 721.592 93.488C722.104 94.16 722.472 94.936 722.696 95.816C722.936 96.68 723 97.576 722.888 98.504H713.768ZM724.488 91.592H727.056V93.992H727.104C727.184 93.656 727.336 93.328 727.56 93.008C727.8 92.688 728.08 92.4 728.4 92.144C728.736 91.872 729.104 91.656 729.504 91.496C729.904 91.336 730.312 91.256 730.728 91.256C731.048 91.256 731.264 91.264 731.376 91.28C731.504 91.296 731.632 91.312 731.76 91.328V93.968C731.568 93.936 731.368 93.912 731.16 93.896C730.968 93.864 730.776 93.848 730.584 93.848C730.12 93.848 729.68 93.944 729.264 94.136C728.864 94.312 728.512 94.584 728.208 94.952C727.904 95.304 727.664 95.744 727.488 96.272C727.312 96.8 727.224 97.408 727.224 98.096V104H724.488V91.592ZM740.997 98.288C740.997 98.944 741.109 99.504 741.333 99.968C741.557 100.432 741.869 100.816 742.269 101.12C742.669 101.408 743.125 101.624 743.637 101.768C744.165 101.896 744.733 101.96 745.341 101.96C745.997 101.96 746.557 101.888 747.021 101.744C747.485 101.584 747.861 101.384 748.149 101.144C748.437 100.904 748.645 100.632 748.773 100.328C748.901 100.008 748.965 99.688 748.965 99.368C748.965 98.712 748.813 98.232 748.509 97.928C748.221 97.608 747.901 97.384 747.549 97.256C746.941 97.032 746.229 96.824 745.413 96.632C744.613 96.424 743.621 96.16 742.437 95.84C741.701 95.648 741.085 95.4 740.589 95.096C740.109 94.776 739.725 94.424 739.437 94.04C739.149 93.656 738.941 93.248 738.813 92.816C738.701 92.384 738.645 91.944 738.645 91.496C738.645 90.632 738.821 89.888 739.173 89.264C739.541 88.624 740.021 88.096 740.613 87.68C741.205 87.264 741.877 86.96 742.629 86.768C743.381 86.56 744.141 86.456 744.909 86.456C745.805 86.456 746.645 86.576 747.429 86.816C748.229 87.04 748.925 87.384 749.517 87.848C750.125 88.312 750.605 88.888 750.957 89.576C751.309 90.248 751.485 91.032 751.485 91.928H748.485C748.405 90.824 748.029 90.048 747.357 89.6C746.685 89.136 745.829 88.904 744.789 88.904C744.437 88.904 744.077 88.944 743.709 89.024C743.341 89.088 743.005 89.208 742.701 89.384C742.397 89.544 742.141 89.768 741.933 90.056C741.741 90.344 741.645 90.704 741.645 91.136C741.645 91.744 741.829 92.224 742.197 92.576C742.581 92.912 743.077 93.168 743.685 93.344C743.749 93.36 743.997 93.432 744.429 93.56C744.877 93.672 745.373 93.8 745.917 93.944C746.461 94.088 746.989 94.232 747.501 94.376C748.029 94.504 748.405 94.6 748.629 94.664C749.189 94.84 749.677 95.08 750.093 95.384C750.509 95.688 750.853 96.04 751.125 96.44C751.413 96.824 751.621 97.24 751.749 97.688C751.893 98.136 751.965 98.584 751.965 99.032C751.965 99.992 751.765 100.816 751.365 101.504C750.981 102.176 750.469 102.728 749.829 103.16C749.189 103.592 748.461 103.904 747.645 104.096C746.829 104.304 745.997 104.408 745.149 104.408C744.173 104.408 743.253 104.288 742.389 104.048C741.525 103.808 740.773 103.44 740.133 102.944C739.493 102.448 738.981 101.816 738.597 101.048C738.213 100.264 738.013 99.344 737.997 98.288H740.997ZM765.415 108.584H762.679V102.392H762.631C762.407 102.728 762.143 103.024 761.839 103.28C761.535 103.52 761.199 103.72 760.831 103.88C760.463 104.04 760.079 104.152 759.679 104.216C759.279 104.296 758.879 104.336 758.479 104.336C757.567 104.336 756.775 104.16 756.103 103.808C755.431 103.44 754.871 102.96 754.423 102.368C753.991 101.76 753.663 101.064 753.439 100.28C753.231 99.496 753.127 98.688 753.127 97.856C753.127 96.944 753.247 96.088 753.487 95.288C753.727 94.488 754.087 93.792 754.567 93.2C755.047 92.592 755.647 92.12 756.367 91.784C757.103 91.432 757.959 91.256 758.935 91.256C759.735 91.256 760.479 91.416 761.167 91.736C761.855 92.04 762.391 92.552 762.775 93.272H762.823V91.592H765.415V108.584ZM755.863 97.808C755.863 98.352 755.919 98.888 756.031 99.416C756.159 99.928 756.359 100.392 756.631 100.808C756.919 101.208 757.279 101.536 757.711 101.792C758.143 102.048 758.671 102.176 759.295 102.176C760.479 102.176 761.351 101.776 761.911 100.976C762.487 100.16 762.775 99.104 762.775 97.808C762.775 96.448 762.479 95.376 761.887 94.592C761.311 93.808 760.447 93.416 759.295 93.416C758.735 93.416 758.239 93.544 757.807 93.8C757.375 94.04 757.015 94.368 756.727 94.784C756.439 95.184 756.223 95.648 756.079 96.176C755.935 96.704 755.863 97.248 755.863 97.808ZM767.991 86.864H770.727V96.608L775.671 91.592H779.031L774.279 96.152L779.487 104H776.151L772.359 97.976L770.727 99.56V104H767.991V86.864ZM780.33 91.592H782.922V93.32H782.994C783.202 93.016 783.426 92.736 783.666 92.48C783.906 92.224 784.17 92.008 784.458 91.832C784.762 91.656 785.106 91.52 785.49 91.424C785.874 91.312 786.314 91.256 786.81 91.256C787.562 91.256 788.258 91.424 788.898 91.76C789.554 92.096 790.018 92.616 790.29 93.32C790.754 92.68 791.29 92.176 791.898 91.808C792.506 91.44 793.266 91.256 794.178 91.256C795.49 91.256 796.506 91.576 797.226 92.216C797.962 92.856 798.33 93.928 798.33 95.432V104H795.594V96.752C795.594 96.256 795.578 95.808 795.546 95.408C795.514 94.992 795.418 94.64 795.258 94.352C795.114 94.048 794.89 93.816 794.586 93.656C794.282 93.496 793.866 93.416 793.338 93.416C792.41 93.416 791.738 93.704 791.322 94.28C790.906 94.856 790.698 95.672 790.698 96.728V104H787.962V96.032C787.962 95.168 787.802 94.52 787.482 94.088C787.178 93.64 786.61 93.416 785.778 93.416C785.426 93.416 785.082 93.488 784.746 93.632C784.426 93.776 784.138 93.984 783.882 94.256C783.642 94.528 783.442 94.864 783.282 95.264C783.138 95.664 783.066 96.12 783.066 96.632V104H780.33V91.592Z" fill="#B6B6B6"/>
</svg>
