<svg width="828" height="115" viewBox="0 0 828 115" fill="none" xmlns="http://www.w3.org/2000/svg">
<g clip-path="url(#clip0_5_260)">
<rect x="54" y="15" width="90" height="25" fill="#861F6B"/>
<rect x="54" y="15" width="90" height="25" fill="#AF1B43"/>
<rect x="54" y="15" width="90" height="25" fill="#D8382E"/>
<rect x="54" y="15" width="90" height="25" fill="#9FD65F"/>
<rect x="54" y="15" width="90" height="25" fill="#BDDC54"/>
<rect x="54" y="15" width="90" height="25" fill="#DBE24A"/>
<rect x="54" y="15" width="90" height="25" fill="#279F57"/>
<rect x="234" y="15" width="90" height="25" fill="#ABC663"/>
<rect x="414" y="15" width="90" height="25" fill="#D6C45F"/>
<rect x="594" y="15" width="90" height="25" fill="#F59F00"/>
<rect x="144" y="15" width="90" height="25" fill="#76B866"/>
<rect x="324" y="15" width="90" height="25" fill="#BEC560"/>
<rect x="504" y="15" width="90" height="25" fill="#F1C35E"/>
<rect x="684" y="15" width="90" height="25" fill="#F75800"/>
<path d="M144 50.5V15" stroke="black" stroke-width="2"/>
<path d="M141.904 57.864H145.096L151.696 75H148.48L146.872 70.464H140.032L138.424 75H135.328L141.904 57.864ZM140.848 68.184H146.08L143.512 60.816H143.44L140.848 68.184Z" fill="black"/>
<path d="M504 50.5V15" stroke="black" stroke-width="2"/>
<path d="M508.232 63.312C508.104 62.816 507.928 62.36 507.704 61.944C507.48 61.528 507.192 61.168 506.84 60.864C506.488 60.56 506.072 60.328 505.592 60.168C505.128 59.992 504.584 59.904 503.96 59.904C503.048 59.904 502.256 60.088 501.584 60.456C500.928 60.824 500.392 61.32 499.976 61.944C499.56 62.552 499.248 63.248 499.04 64.032C498.848 64.816 498.752 65.616 498.752 66.432C498.752 67.248 498.848 68.048 499.04 68.832C499.248 69.616 499.56 70.32 499.976 70.944C500.392 71.552 500.928 72.04 501.584 72.408C502.256 72.776 503.048 72.96 503.96 72.96C504.632 72.96 505.224 72.848 505.736 72.624C506.248 72.384 506.688 72.064 507.056 71.664C507.424 71.248 507.712 70.768 507.92 70.224C508.128 69.68 508.264 69.096 508.328 68.472H511.256C511.192 69.496 510.968 70.432 510.584 71.28C510.216 72.128 509.712 72.864 509.072 73.488C508.432 74.096 507.68 74.568 506.816 74.904C505.952 75.24 505 75.408 503.96 75.408C502.68 75.408 501.528 75.176 500.504 74.712C499.496 74.232 498.64 73.584 497.936 72.768C497.232 71.952 496.688 71 496.304 69.912C495.936 68.824 495.752 67.664 495.752 66.432C495.752 65.216 495.936 64.064 496.304 62.976C496.688 61.888 497.232 60.936 497.936 60.12C498.64 59.304 499.496 58.656 500.504 58.176C501.528 57.696 502.68 57.456 503.96 57.456C504.92 57.456 505.824 57.592 506.672 57.864C507.52 58.12 508.264 58.504 508.904 59.016C509.56 59.512 510.088 60.12 510.488 60.84C510.888 61.56 511.136 62.384 511.232 63.312H508.232Z" fill="black"/>
<path d="M234 50.5V15" stroke="black" stroke-width="2"/>
<path d="M222.679 65.04H227.575C228.295 65.04 228.895 64.84 229.375 64.44C229.855 64.024 230.095 63.432 230.095 62.664C230.095 61.8 229.879 61.192 229.447 60.84C229.015 60.488 228.391 60.312 227.575 60.312H222.679V65.04ZM219.679 57.864H228.007C229.543 57.864 230.775 58.216 231.703 58.92C232.631 59.624 233.095 60.688 233.095 62.112C233.095 62.976 232.879 63.72 232.447 64.344C232.031 64.952 231.431 65.424 230.647 65.76V65.808C231.703 66.032 232.503 66.536 233.047 67.32C233.591 68.088 233.863 69.056 233.863 70.224C233.863 70.896 233.743 71.528 233.503 72.12C233.263 72.696 232.887 73.2 232.375 73.632C231.863 74.048 231.207 74.384 230.407 74.64C229.607 74.88 228.655 75 227.551 75H219.679V57.864ZM222.679 72.552H227.983C228.895 72.552 229.599 72.32 230.095 71.856C230.607 71.376 230.863 70.704 230.863 69.84C230.863 68.992 230.607 68.344 230.095 67.896C229.599 67.432 228.895 67.2 227.983 67.2H222.679V72.552ZM240.73 62.856H243.178V67.704H248.002V70.152H243.178V75H240.73V70.152H235.906V67.704H240.73V62.856Z" fill="black"/>
<path d="M594 50.5V15" stroke="black" stroke-width="2"/>
<path d="M586.664 57.864H593.768C595.08 57.864 596.216 58.088 597.176 58.536C598.136 58.984 598.92 59.6 599.528 60.384C600.136 61.152 600.584 62.056 600.872 63.096C601.176 64.136 601.328 65.248 601.328 66.432C601.328 67.616 601.176 68.728 600.872 69.768C600.584 70.808 600.136 71.72 599.528 72.504C598.92 73.272 598.136 73.88 597.176 74.328C596.216 74.776 595.08 75 593.768 75H586.664V57.864ZM589.664 72.552H592.616C593.784 72.552 594.736 72.4 595.472 72.096C596.224 71.776 596.808 71.344 597.224 70.8C597.656 70.24 597.944 69.592 598.088 68.856C598.248 68.104 598.328 67.296 598.328 66.432C598.328 65.568 598.248 64.768 598.088 64.032C597.944 63.28 597.656 62.632 597.224 62.088C596.808 61.528 596.224 61.096 595.472 60.792C594.736 60.472 593.784 60.312 592.616 60.312H589.664V72.552Z" fill="black"/>
<path d="M324 50.5V15" stroke="black" stroke-width="2"/>
<path d="M319.875 65.04H324.771C325.491 65.04 326.091 64.84 326.571 64.44C327.051 64.024 327.291 63.432 327.291 62.664C327.291 61.8 327.075 61.192 326.643 60.84C326.211 60.488 325.587 60.312 324.771 60.312H319.875V65.04ZM316.875 57.864H325.203C326.739 57.864 327.971 58.216 328.899 58.92C329.827 59.624 330.291 60.688 330.291 62.112C330.291 62.976 330.075 63.72 329.643 64.344C329.227 64.952 328.627 65.424 327.843 65.76V65.808C328.899 66.032 329.699 66.536 330.243 67.32C330.787 68.088 331.059 69.056 331.059 70.224C331.059 70.896 330.939 71.528 330.699 72.12C330.459 72.696 330.083 73.2 329.571 73.632C329.059 74.048 328.403 74.384 327.603 74.64C326.803 74.88 325.851 75 324.747 75H316.875V57.864ZM319.875 72.552H325.179C326.091 72.552 326.795 72.32 327.291 71.856C327.803 71.376 328.059 70.704 328.059 69.84C328.059 68.992 327.803 68.344 327.291 67.896C326.795 67.432 326.091 67.2 325.179 67.2H319.875V72.552Z" fill="black"/>
<path d="M684.137 50.5V15" stroke="black" stroke-width="2"/>
<path d="M677.847 57.864H690.183V60.456H680.847V64.944H689.487V67.392H680.847V72.408H690.351V75H677.847V57.864Z" fill="black"/>
<path d="M414 50.5V15" stroke="black" stroke-width="2"/>
<path d="M411.037 63.312C410.909 62.816 410.733 62.36 410.509 61.944C410.285 61.528 409.997 61.168 409.645 60.864C409.293 60.56 408.877 60.328 408.397 60.168C407.933 59.992 407.389 59.904 406.765 59.904C405.853 59.904 405.061 60.088 404.389 60.456C403.733 60.824 403.197 61.32 402.781 61.944C402.365 62.552 402.053 63.248 401.845 64.032C401.653 64.816 401.557 65.616 401.557 66.432C401.557 67.248 401.653 68.048 401.845 68.832C402.053 69.616 402.365 70.32 402.781 70.944C403.197 71.552 403.733 72.04 404.389 72.408C405.061 72.776 405.853 72.96 406.765 72.96C407.437 72.96 408.029 72.848 408.541 72.624C409.053 72.384 409.493 72.064 409.861 71.664C410.229 71.248 410.517 70.768 410.725 70.224C410.933 69.68 411.069 69.096 411.133 68.472H414.061C413.997 69.496 413.773 70.432 413.389 71.28C413.021 72.128 412.517 72.864 411.877 73.488C411.237 74.096 410.485 74.568 409.621 74.904C408.757 75.24 407.805 75.408 406.765 75.408C405.485 75.408 404.333 75.176 403.309 74.712C402.301 74.232 401.445 73.584 400.741 72.768C400.037 71.952 399.493 71 399.109 69.912C398.741 68.824 398.557 67.664 398.557 66.432C398.557 65.216 398.741 64.064 399.109 62.976C399.493 61.888 400.037 60.936 400.741 60.12C401.445 59.304 402.301 58.656 403.309 58.176C404.333 57.696 405.485 57.456 406.765 57.456C407.725 57.456 408.629 57.592 409.477 57.864C410.325 58.12 411.069 58.504 411.709 59.016C412.365 59.512 412.893 60.12 413.293 60.84C413.693 61.56 413.941 62.384 414.037 63.312H411.037ZM420.941 62.856H423.389V67.704H428.213V70.152H423.389V75H420.941V70.152H416.117V67.704H420.941V62.856Z" fill="black"/>
<path d="M705.792 69.288C705.792 69.944 705.904 70.504 706.128 70.968C706.352 71.432 706.664 71.816 707.064 72.12C707.464 72.408 707.92 72.624 708.432 72.768C708.96 72.896 709.528 72.96 710.136 72.96C710.792 72.96 711.352 72.888 711.816 72.744C712.28 72.584 712.656 72.384 712.944 72.144C713.232 71.904 713.44 71.632 713.568 71.328C713.696 71.008 713.76 70.688 713.76 70.368C713.76 69.712 713.608 69.232 713.304 68.928C713.016 68.608 712.696 68.384 712.344 68.256C711.736 68.032 711.024 67.824 710.208 67.632C709.408 67.424 708.416 67.16 707.232 66.84C706.496 66.648 705.88 66.4 705.384 66.096C704.904 65.776 704.52 65.424 704.232 65.04C703.944 64.656 703.736 64.248 703.608 63.816C703.496 63.384 703.44 62.944 703.44 62.496C703.44 61.632 703.616 60.888 703.968 60.264C704.336 59.624 704.816 59.096 705.408 58.68C706 58.264 706.672 57.96 707.424 57.768C708.176 57.56 708.936 57.456 709.704 57.456C710.6 57.456 711.44 57.576 712.224 57.816C713.024 58.04 713.72 58.384 714.312 58.848C714.92 59.312 715.4 59.888 715.752 60.576C716.104 61.248 716.28 62.032 716.28 62.928H713.28C713.2 61.824 712.824 61.048 712.152 60.6C711.48 60.136 710.624 59.904 709.584 59.904C709.232 59.904 708.872 59.944 708.504 60.024C708.136 60.088 707.8 60.208 707.496 60.384C707.192 60.544 706.936 60.768 706.728 61.056C706.536 61.344 706.44 61.704 706.44 62.136C706.44 62.744 706.624 63.224 706.992 63.576C707.376 63.912 707.872 64.168 708.48 64.344C708.544 64.36 708.792 64.432 709.224 64.56C709.672 64.672 710.168 64.8 710.712 64.944C711.256 65.088 711.784 65.232 712.296 65.376C712.824 65.504 713.2 65.6 713.424 65.664C713.984 65.84 714.472 66.08 714.888 66.384C715.304 66.688 715.648 67.04 715.92 67.44C716.208 67.824 716.416 68.24 716.544 68.688C716.688 69.136 716.76 69.584 716.76 70.032C716.76 70.992 716.56 71.816 716.16 72.504C715.776 73.176 715.264 73.728 714.624 74.16C713.984 74.592 713.256 74.904 712.44 75.096C711.624 75.304 710.792 75.408 709.944 75.408C708.968 75.408 708.048 75.288 707.184 75.048C706.32 74.808 705.568 74.44 704.928 73.944C704.288 73.448 703.776 72.816 703.392 72.048C703.008 71.264 702.808 70.344 702.792 69.288H705.792ZM718.907 57.864H731.243V60.456H721.907V64.944H730.547V67.392H721.907V72.408H731.411V75H718.907V57.864ZM735.512 69.288C735.512 69.944 735.624 70.504 735.848 70.968C736.072 71.432 736.384 71.816 736.784 72.12C737.184 72.408 737.64 72.624 738.152 72.768C738.68 72.896 739.248 72.96 739.856 72.96C740.512 72.96 741.072 72.888 741.536 72.744C742 72.584 742.376 72.384 742.664 72.144C742.952 71.904 743.16 71.632 743.288 71.328C743.416 71.008 743.48 70.688 743.48 70.368C743.48 69.712 743.328 69.232 743.024 68.928C742.736 68.608 742.416 68.384 742.064 68.256C741.456 68.032 740.744 67.824 739.928 67.632C739.128 67.424 738.136 67.16 736.952 66.84C736.216 66.648 735.6 66.4 735.104 66.096C734.624 65.776 734.24 65.424 733.952 65.04C733.664 64.656 733.456 64.248 733.328 63.816C733.216 63.384 733.16 62.944 733.16 62.496C733.16 61.632 733.336 60.888 733.688 60.264C734.056 59.624 734.536 59.096 735.128 58.68C735.72 58.264 736.392 57.96 737.144 57.768C737.896 57.56 738.656 57.456 739.424 57.456C740.32 57.456 741.16 57.576 741.944 57.816C742.744 58.04 743.44 58.384 744.032 58.848C744.64 59.312 745.12 59.888 745.472 60.576C745.824 61.248 746 62.032 746 62.928H743C742.92 61.824 742.544 61.048 741.872 60.6C741.2 60.136 740.344 59.904 739.304 59.904C738.952 59.904 738.592 59.944 738.224 60.024C737.856 60.088 737.52 60.208 737.216 60.384C736.912 60.544 736.656 60.768 736.448 61.056C736.256 61.344 736.16 61.704 736.16 62.136C736.16 62.744 736.344 63.224 736.712 63.576C737.096 63.912 737.592 64.168 738.2 64.344C738.264 64.36 738.512 64.432 738.944 64.56C739.392 64.672 739.888 64.8 740.432 64.944C740.976 65.088 741.504 65.232 742.016 65.376C742.544 65.504 742.92 65.6 743.144 65.664C743.704 65.84 744.192 66.08 744.608 66.384C745.024 66.688 745.368 67.04 745.64 67.44C745.928 67.824 746.136 68.24 746.264 68.688C746.408 69.136 746.48 69.584 746.48 70.032C746.48 70.992 746.28 71.816 745.88 72.504C745.496 73.176 744.984 73.728 744.344 74.16C743.704 74.592 742.976 74.904 742.16 75.096C741.344 75.304 740.512 75.408 739.664 75.408C738.688 75.408 737.768 75.288 736.904 75.048C736.04 74.808 735.288 74.44 734.648 73.944C734.008 73.448 733.496 72.816 733.112 72.048C732.728 71.264 732.528 70.344 732.512 69.288H735.512ZM756.794 69.288C756.794 69.944 756.906 70.504 757.13 70.968C757.354 71.432 757.666 71.816 758.066 72.12C758.466 72.408 758.922 72.624 759.434 72.768C759.962 72.896 760.53 72.96 761.138 72.96C761.794 72.96 762.354 72.888 762.818 72.744C763.282 72.584 763.658 72.384 763.946 72.144C764.234 71.904 764.442 71.632 764.57 71.328C764.698 71.008 764.762 70.688 764.762 70.368C764.762 69.712 764.61 69.232 764.306 68.928C764.018 68.608 763.698 68.384 763.346 68.256C762.738 68.032 762.026 67.824 761.21 67.632C760.41 67.424 759.418 67.16 758.234 66.84C757.498 66.648 756.882 66.4 756.386 66.096C755.906 65.776 755.522 65.424 755.234 65.04C754.946 64.656 754.738 64.248 754.61 63.816C754.498 63.384 754.442 62.944 754.442 62.496C754.442 61.632 754.618 60.888 754.97 60.264C755.338 59.624 755.818 59.096 756.41 58.68C757.002 58.264 757.674 57.96 758.426 57.768C759.178 57.56 759.938 57.456 760.706 57.456C761.602 57.456 762.442 57.576 763.226 57.816C764.026 58.04 764.722 58.384 765.314 58.848C765.922 59.312 766.402 59.888 766.754 60.576C767.106 61.248 767.282 62.032 767.282 62.928H764.282C764.202 61.824 763.826 61.048 763.154 60.6C762.482 60.136 761.626 59.904 760.586 59.904C760.234 59.904 759.874 59.944 759.506 60.024C759.138 60.088 758.802 60.208 758.498 60.384C758.194 60.544 757.938 60.768 757.73 61.056C757.538 61.344 757.442 61.704 757.442 62.136C757.442 62.744 757.626 63.224 757.994 63.576C758.378 63.912 758.874 64.168 759.482 64.344C759.546 64.36 759.794 64.432 760.226 64.56C760.674 64.672 761.17 64.8 761.714 64.944C762.258 65.088 762.786 65.232 763.298 65.376C763.826 65.504 764.202 65.6 764.426 65.664C764.986 65.84 765.474 66.08 765.89 66.384C766.306 66.688 766.65 67.04 766.922 67.44C767.21 67.824 767.418 68.24 767.546 68.688C767.69 69.136 767.762 69.584 767.762 70.032C767.762 70.992 767.562 71.816 767.162 72.504C766.778 73.176 766.266 73.728 765.626 74.16C764.986 74.592 764.258 74.904 763.442 75.096C762.626 75.304 761.794 75.408 760.946 75.408C759.97 75.408 759.05 75.288 758.186 75.048C757.322 74.808 756.57 74.44 755.93 73.944C755.29 73.448 754.778 72.816 754.394 72.048C754.01 71.264 753.81 70.344 753.794 69.288H756.794ZM777.9 66.744C777.788 65.976 777.476 65.4 776.964 65.016C776.468 64.616 775.836 64.416 775.068 64.416C774.716 64.416 774.34 64.48 773.94 64.608C773.54 64.72 773.172 64.944 772.836 65.28C772.5 65.6 772.22 66.056 771.996 66.648C771.772 67.224 771.66 67.984 771.66 68.928C771.66 69.44 771.716 69.952 771.828 70.464C771.956 70.976 772.148 71.432 772.404 71.832C772.676 72.232 773.02 72.56 773.436 72.816C773.852 73.056 774.356 73.176 774.948 73.176C775.748 73.176 776.404 72.928 776.916 72.432C777.444 71.936 777.772 71.24 777.9 70.344H780.636C780.38 71.96 779.764 73.2 778.788 74.064C777.828 74.912 776.548 75.336 774.948 75.336C773.972 75.336 773.108 75.176 772.356 74.856C771.62 74.52 770.996 74.072 770.484 73.512C769.972 72.936 769.58 72.256 769.308 71.472C769.052 70.688 768.924 69.84 768.924 68.928C768.924 68 769.052 67.128 769.308 66.312C769.564 65.496 769.948 64.792 770.46 64.2C770.972 63.592 771.604 63.12 772.356 62.784C773.124 62.432 774.02 62.256 775.044 62.256C775.764 62.256 776.444 62.352 777.084 62.544C777.74 62.72 778.316 62.992 778.812 63.36C779.324 63.728 779.74 64.192 780.06 64.752C780.38 65.312 780.572 65.976 780.636 66.744H777.9ZM788.068 75.336C787.076 75.336 786.188 75.176 785.404 74.856C784.636 74.52 783.98 74.064 783.436 73.488C782.908 72.912 782.5 72.224 782.212 71.424C781.94 70.624 781.804 69.744 781.804 68.784C781.804 67.84 781.94 66.968 782.212 66.168C782.5 65.368 782.908 64.68 783.436 64.104C783.98 63.528 784.636 63.08 785.404 62.76C786.188 62.424 787.076 62.256 788.068 62.256C789.06 62.256 789.94 62.424 790.708 62.76C791.492 63.08 792.148 63.528 792.676 64.104C793.22 64.68 793.628 65.368 793.9 66.168C794.188 66.968 794.332 67.84 794.332 68.784C794.332 69.744 794.188 70.624 793.9 71.424C793.628 72.224 793.22 72.912 792.676 73.488C792.148 74.064 791.492 74.52 790.708 74.856C789.94 75.176 789.06 75.336 788.068 75.336ZM788.068 73.176C788.676 73.176 789.204 73.048 789.652 72.792C790.1 72.536 790.468 72.2 790.756 71.784C791.044 71.368 791.252 70.904 791.38 70.392C791.524 69.864 791.596 69.328 791.596 68.784C791.596 68.256 791.524 67.728 791.38 67.2C791.252 66.672 791.044 66.208 790.756 65.808C790.468 65.392 790.1 65.056 789.652 64.8C789.204 64.544 788.676 64.416 788.068 64.416C787.46 64.416 786.932 64.544 786.484 64.8C786.036 65.056 785.668 65.392 785.38 65.808C785.092 66.208 784.876 66.672 784.732 67.2C784.604 67.728 784.54 68.256 784.54 68.784C784.54 69.328 784.604 69.864 784.732 70.392C784.876 70.904 785.092 71.368 785.38 71.784C785.668 72.2 786.036 72.536 786.484 72.792C786.932 73.048 787.46 73.176 788.068 73.176ZM796.127 62.592H798.695V64.992H798.743C798.823 64.656 798.975 64.328 799.199 64.008C799.439 63.688 799.719 63.4 800.039 63.144C800.375 62.872 800.743 62.656 801.143 62.496C801.543 62.336 801.951 62.256 802.367 62.256C802.687 62.256 802.903 62.264 803.015 62.28C803.143 62.296 803.271 62.312 803.399 62.328V64.968C803.207 64.936 803.007 64.912 802.799 64.896C802.607 64.864 802.415 64.848 802.223 64.848C801.759 64.848 801.319 64.944 800.903 65.136C800.503 65.312 800.151 65.584 799.847 65.952C799.543 66.304 799.303 66.744 799.127 67.272C798.951 67.8 798.863 68.408 798.863 69.096V75H796.127V62.592ZM812.183 67.704C812.151 67.272 812.055 66.856 811.895 66.456C811.751 66.056 811.543 65.712 811.271 65.424C811.015 65.12 810.695 64.88 810.311 64.704C809.943 64.512 809.527 64.416 809.063 64.416C808.583 64.416 808.143 64.504 807.743 64.68C807.359 64.84 807.023 65.072 806.735 65.376C806.463 65.664 806.239 66.008 806.063 66.408C805.903 66.808 805.815 67.24 805.799 67.704H812.183ZM805.799 69.504C805.799 69.984 805.863 70.448 805.991 70.896C806.135 71.344 806.343 71.736 806.615 72.072C806.887 72.408 807.231 72.68 807.647 72.888C808.063 73.08 808.559 73.176 809.135 73.176C809.935 73.176 810.575 73.008 811.055 72.672C811.551 72.32 811.919 71.8 812.159 71.112H814.751C814.607 71.784 814.359 72.384 814.007 72.912C813.655 73.44 813.231 73.888 812.735 74.256C812.239 74.608 811.679 74.872 811.055 75.048C810.447 75.24 809.807 75.336 809.135 75.336C808.159 75.336 807.295 75.176 806.543 74.856C805.791 74.536 805.151 74.088 804.623 73.512C804.111 72.936 803.719 72.248 803.447 71.448C803.191 70.648 803.063 69.768 803.063 68.808C803.063 67.928 803.199 67.096 803.471 66.312C803.759 65.512 804.159 64.816 804.671 64.224C805.199 63.616 805.831 63.136 806.567 62.784C807.303 62.432 808.135 62.256 809.063 62.256C810.039 62.256 810.911 62.464 811.679 62.88C812.463 63.28 813.111 63.816 813.623 64.488C814.135 65.16 814.503 65.936 814.727 66.816C814.967 67.68 815.031 68.576 814.919 69.504H805.799Z" fill="#B6B6B6"/>
</g>
<defs>
<clipPath id="clip0_5_260">
<rect width="828" height="115" fill="white"/>
</clipPath>
</defs>
</svg>
